<?xml version="1.0" standalone="no"?>
<!DOCTYPE svg PUBLIC "-//W3C//DTD SVG 1.1//EN" "http://www.w3.org/Graphics/SVG/1.1/DTD/svg11.dtd" >
<svg xmlns="http://www.w3.org/2000/svg" xmlns:xlink="http://www.w3.org/1999/xlink" version="1.1">
<metadata>
Created by FontForge 20170731 at Tue Mar  5 21:05:03 1996
 By Aleksey,,,
Data copyright (c) URW Software &#38; Type GbmH., additional data copyright The Font Bureau, Inc. Copyright 1994 Microsoft Corporation. All rights reserved.
</metadata>
<defs>
<font id="CopperplateGothic-Bold" horiz-adv-x="1024" >
  <font-face 
    font-family="Copperplate Gothic Bold"
    font-weight="700"
    font-stretch="normal"
    units-per-em="2048"
    panose-1="2 14 7 5 2 2 6 2 4 4"
    ascent="1638"
    descent="-410"
    x-height="1120"
    cap-height="1365"
    bbox="-273 -512 2575 1813"
    underline-thickness="174"
    underline-position="-467"
    unicode-range="U+0020-F002"
  />
<missing-glyph horiz-adv-x="512" 
d="M51 0v1365h410v-1365h-410zM410 51v1263h-308v-1263h308z" />
    <glyph glyph-name=".notdef" horiz-adv-x="512" 
d="M51 0v1365h410v-1365h-410zM410 51v1263h-308v-1263h308z" />
    <glyph glyph-name="glyph1" horiz-adv-x="0" 
 />
    <glyph glyph-name="glyph2" horiz-adv-x="512" 
 />
    <glyph glyph-name="space" unicode=" " horiz-adv-x="512" 
 />
    <glyph glyph-name="space" unicode="&#xa0;" horiz-adv-x="512" 
 />
    <glyph glyph-name="exclam" unicode="!" horiz-adv-x="774" 
d="M518 480h-262v32q41 11 52 24.5t11 48.5q0 21 -3 45l-73 615q-6 53 -16.5 67t-49.5 21v32h420v-32q-39 -7 -49.5 -21t-16.5 -67l-73 -615q-3 -24 -3 -45q0 -36 11 -49t52 -24v-32zM387 304q69 0 116.5 -48t47.5 -117q0 -67 -48.5 -115t-115.5 -48q-68 0 -116 48.5
t-48 116.5q0 67 47.5 114.5t116.5 48.5z" />
    <glyph glyph-name="quotedbl" unicode="&#x22;" horiz-adv-x="1137" 
d="M403 803v-29h-236v29q38 10 47.5 22.5t9.5 51.5q0 16 -3 32l-66 348q-7 50 -15.5 61t-43.5 18v29h378v-29q-36 -7 -44 -18t-15 -61l-66 -348q-3 -15 -3 -34q0 -37 9.5 -49.5t47.5 -22.5zM971 803v-29h-236v29q38 10 47.5 22.5t9.5 51.5q0 17 -3 32l-66 348
q-7 50 -15.5 61t-43.5 18v29h378v-29q-35 -7 -43.5 -18t-15.5 -61l-66 -348q-3 -15 -3 -34q0 -37 9.5 -49.5t47.5 -22.5z" />
    <glyph glyph-name="numbersign" unicode="#" horiz-adv-x="1570" 
d="M1235 1054h166q31 0 50 15t35 51h32l-64 -341h-34q-3 35 -16.5 49t-43.5 14h-167l-63 -326h166q31 0 50 14t35 49h32l-64 -340h-34q-3 36 -16 50.5t-44 14.5h-166l-39 -201q-1 -5 -1 -16q0 -25 10 -36t41 -21l-7 -34h-340l7 34q38 11 55 26.5t23 46.5l39 201h-328
l-39 -201q-1 -5 -1 -16q0 -25 10 -36t41 -21l-6 -34h-340l6 34q39 11 56 26.5t23 46.5l39 201h-167q-30 0 -49 -14.5t-36 -50.5h-34l66 340h34q3 -36 16 -49.5t44 -13.5h167l63 326h-166q-31 0 -49.5 -13.5t-35.5 -49.5h-34l66 341h34q3 -37 16 -51.5t44 -14.5h167l38 201
q2 6 2 17q0 24 -10.5 35.5t-40.5 19.5l6 33h340l-7 -33q-37 -9 -54.5 -25.5t-23.5 -46.5l-39 -201h328l39 201q1 6 1 17q0 24 -10.5 35.5t-40.5 19.5l6 33h340l-6 -33q-38 -9 -55.5 -25.5t-23.5 -46.5zM918 516l64 326h-328l-64 -326h328z" />
    <glyph glyph-name="dollar" unicode="$" horiz-adv-x="1461" 
d="M821 837l36 -3q250 -22 381 -112q68 -47 107.5 -126.5t39.5 -169.5q0 -138 -79.5 -240t-230.5 -156q-124 -45 -254 -51v-65q0 -31 14 -47t50 -26v-32h-278v32q36 10 50 26t14 47v65q-242 18 -491 143q-22 11 -35 11t-41 -22l-29 14l148 335l29 -13v-14q0 -54 63 -98
q65 -45 165.5 -79t190.5 -42v341q-146 14 -219 30t-137 48q-92 46 -143 135q-47 82 -47 186q0 193 146.5 310t399.5 125v49q0 30 -14 46t-50 26v32h279v-32q-37 -10 -51 -26t-14 -46v-54q94 -7 192.5 -36t254.5 -95q26 -11 41 -11q21 0 49 23l29 -15l-164 -321l-28 16
q1 8 1 16q0 51 -128.5 115.5t-246.5 73.5v-313zM671 854v301q-82 -6 -137 -24q-61 -20 -97 -60t-36 -87q0 -36 25 -64t68 -40q60 -17 177 -26zM821 538v-325q99 11 161 41q114 56 114 152q0 32 -20.5 59.5t-52.5 38.5q-56 20 -202 34z" />
    <glyph glyph-name="percent" unicode="%" horiz-adv-x="1809" 
d="M416 1377q146 0 242 -88q108 -99 108 -270q0 -162 -108 -261q-96 -88 -241 -88t-241 88q-108 100 -108 266q0 168 108 265q96 86 240 88zM417 1234q-78 0 -127 -58.5t-49 -152.5q0 -93 49 -151.5t127 -58.5q77 0 126.5 58.5t49.5 149.5q0 96 -48 154t-128 59zM1391 695
q146 0 242 -88q108 -99 108 -270q0 -162 -108 -261q-96 -88 -241 -88t-241 88q-108 99 -108 266q0 168 108 265q96 86 240 88zM1392 552q-78 0 -127 -58.5t-49 -152.5q0 -93 49 -151.5t127 -58.5q77 0 126.5 58.5t49.5 149.5q0 96 -48 154t-128 59zM1380 1192l-804 -1040
q-36 -47 -36 -68q0 -40 60 -52v-32h-356v32q51 8 80.5 31.5t98.5 112.5l788 1016q44 56 44 81q0 44 -60 60v32h355v-32q-51 -7 -74.5 -26.5t-95.5 -114.5z" />
    <glyph glyph-name="ampersand" unicode="&#x26;" horiz-adv-x="1584" 
d="M1530 940v-379h-32q-6 50 -30 50q-22 0 -66 -29t-77 -66q-59 -65 -82 -141q62 -63 107.5 -89.5t93.5 -26.5q44 0 54 48h32v-315q-28 6 -176 15q-57 4 -141.5 53t-145.5 114q-203 -198 -482 -198q-218 0 -362 104q-163 117 -163 309q0 257 304 406q-135 118 -135 258
q0 163 156 259q127 77 291 77q184 0 322 -92q135 -90 135 -250q0 -89 -39.5 -151t-141.5 -134q104 -67 161 -190q96 166 188 247.5t229 120.5zM683 1185q-76 0 -133 -37q-73 -47 -73 -135q0 -74 58.5 -122.5t147.5 -48.5q77 0 134 37q73 48 73 132q0 77 -57 125t-150 49z
M612 672q-112 0 -194 -65q-81 -65 -81 -163q0 -103 79.5 -169t203.5 -66q128 0 218 64q90 63 90 150q0 41 -27.5 90.5t-69.5 82.5q-92 75 -219 76z" />
    <glyph glyph-name="quotesingle" unicode="'" horiz-adv-x="569" 
d="M403 803v-29h-236v29q38 10 47.5 22.5t9.5 51.5q0 16 -3 32l-66 348q-7 50 -15.5 61t-43.5 18v29h378v-29q-36 -7 -44 -18t-15 -61l-66 -348q-3 -15 -3 -34q0 -37 9.5 -49.5t47.5 -22.5z" />
    <glyph glyph-name="parenleft" unicode="(" horiz-adv-x="683" 
d="M556 1529l110 -91q-114 -132 -167 -248q-97 -207 -97 -508q0 -244 60.5 -416t203.5 -339l-110 -91q-129 92 -225 230q-197 284 -197 616q0 251 114 480t308 367z" />
    <glyph glyph-name="parenright" unicode=")" horiz-adv-x="683" 
d="M127 1529q128 -92 224 -230q197 -284 197 -617q0 -251 -113.5 -479t-307.5 -367l-111 91q114 132 168 247q96 208 96 508q0 245 -60.5 417.5t-203.5 338.5z" />
    <glyph glyph-name="asterisk" unicode="*" horiz-adv-x="1033" 
d="M365 1502h303v-38q-50 -12 -66 -61t-19 -202q134 46 179.5 75.5t45.5 71.5q0 5 -1 15l36 12l94 -288l-36 -12q-27 44 -74 44q-59 0 -203 -44q78 -103 116 -138.5t70 -35.5q14 0 38 10l22 -30l-245 -179l-22 31q24 30 24 52q0 53 -110 211q-110 -158 -110 -211
q0 -22 24 -52l-22 -31l-246 178l23 31q25 -10 39 -10q56 0 184 173q-148 45 -204 45q-44 0 -73 -44l-36 11l94 288l36 -11q-1 -10 -1 -17q0 -39 51.5 -72t173.5 -73q-4 156 -19.5 203.5t-65.5 59.5v38z" />
    <glyph glyph-name="plus" unicode="+" horiz-adv-x="1570" 
d="M687 585h-357q-28 0 -43 -14t-24 -50h-29v324h30q8 -36 23 -50t43 -14h357v356q0 28 -14 42.5t-50 23.5v30h324v-29q-36 -10 -50 -24t-14 -43v-356h357q28 0 42.5 14t23.5 50h30v-324h-30q-9 36 -23.5 50t-42.5 14h-357v-357q0 -28 14 -43t50 -24v-29h-324v30q36 8 50 23
t14 43v357z" />
    <glyph glyph-name="comma" unicode="," horiz-adv-x="628" 
d="M197 -250q82 54 118 105t51 132q-48 -11 -70 -11q-66 0 -106 46t-40 120t40.5 118t107.5 44q90 0 138 -74q42 -67 42 -160q0 -220 -233 -384z" />
    <glyph glyph-name="hyphen" unicode="-" horiz-adv-x="455" 
d="M455 733v-346h-32q-10 36 -26 50t-47 14h-246q-30 0 -46.5 -14.5t-25.5 -49.5h-32v346h32q9 -36 25.5 -50.5t46.5 -14.5h246q31 0 47 14t26 51h32z" />
    <glyph glyph-name="period" unicode="." horiz-adv-x="628" 
d="M314 304q69 0 116.5 -48t47.5 -117q0 -67 -48.5 -115t-115.5 -48q-68 0 -116 48.5t-48 116.5q0 67 47.5 114.5t116.5 48.5z" />
    <glyph glyph-name="slash" unicode="/" horiz-adv-x="1555" 
d="M1317 1192l-804 -1040q-37 -47 -37 -68q0 -40 60 -52v-32h-468v32q52 8 81 31.5t98 112.5l788 1016q44 56 44 81q0 44 -60 60v32h468v-32q-51 -7 -74.5 -26.5t-95.5 -114.5z" />
    <glyph glyph-name="zero" unicode="0" horiz-adv-x="1461" 
d="M729 1389q269 0 447 -175q200 -197 200 -541q0 -108 -30 -219t-82 -193q-91 -144 -240 -219q-132 -66 -294 -66q-269 0 -446 176q-85 85 -132 192q-68 158 -68 339q0 244 112 422q88 141 240 218q126 64 293 66zM729 1157q-159 0 -253 -141q-87 -131 -87 -325t87 -325
q94 -141 254 -141q161 0 254 141q87 131 87 319q0 203 -87 331q-93 139 -255 141z" />
    <glyph glyph-name="one" unicode="1" horiz-adv-x="1461" 
d="M441 872v363h32q11 -37 21 -48t31 -11q10 0 28 4l86 22v59q0 30 -14 46t-50 26v32h417v-32q-36 -10 -50 -25.5t-14 -46.5v-1156q0 -31 14 -47t50 -26v-32h-417v32q36 10 50 26t14 47v864l-94 -23q-33 -8 -47.5 -23t-24.5 -51h-32z" />
    <glyph glyph-name="two" unicode="2" horiz-adv-x="1461" 
d="M439 246h835q31 0 47 14t26 50h32v-374h-32q-10 36 -26 50t-47 14h-1063q-51 0 -69 -12t-27 -52h-32q-1 50 -1 64q0 128 29 211q59 168 220 285q83 60 271 146l169 77q119 55 171.5 113.5t52.5 138.5q0 91 -62.5 138.5t-181.5 47.5q-145 0 -270 -71q-121 -68 -121 -140
q0 -17 16 -63l-22 -23l-266 287l24 22q38 -18 56 -18q16 0 28 7t49 40q220 191 543 191q232 0 371 -114q141 -116 141 -309q0 -190 -135 -314q-89 -81 -239 -148l-154 -69q-24 -12 -109 -46q-104 -42 -146 -68.5t-78 -74.5z" />
    <glyph glyph-name="three" unicode="3" horiz-adv-x="1461" 
d="M1151 716q227 -85 227 -302q0 -222 -195 -337q-171 -101 -428 -101q-273 0 -495 107q-93 45 -120 45q-25 0 -68 -37l-29 15l160 369l30 -13q-5 -12 -5 -21q0 -54 55 -99q71 -58 203 -95.5t265 -37.5q126 0 216 41q114 52 114 163q0 96 -81 145t-239 49q-96 0 -132.5 -14
t-46.5 -55h-32v335h32q12 -45 44.5 -58.5t127.5 -13.5q148 0 227 52q69 44 69 127q0 85 -77 131t-220 46q-202 0 -355 -89q-74 -44 -74 -92q0 -19 13 -45l-25 -20l-230 283l25 20q37 -17 55 -17q20 0 54 23q251 169 561 169q216 0 364 -85q85 -49 133 -127q49 -81 49 -181
q0 -179 -172 -280z" />
    <glyph glyph-name="four" unicode="4" horiz-adv-x="1461" 
d="M943 230h-719q-58 0 -76.5 -11.5t-26.5 -53.5h-31v290l678 762q44 51 44 73q0 35 -51 43v32h535v-32q-36 -10 -50 -26t-14 -46v-806h75q31 0 47 14t26 49h32v-353h-32q-10 36 -26 50.5t-47 14.5h-75v-125q0 -31 14 -47t50 -26v-32h-417v32q36 10 50 26t14 47v125z
M943 455v599l-527 -599h527z" />
    <glyph glyph-name="five" unicode="5" horiz-adv-x="1461" 
d="M57 162l241 319l26 -18q-7 -26 -7 -44q0 -51 81 -102q168 -108 370 -108q151 0 238 63q94 69 94 189q0 111 -90.5 177t-242.5 66q-112 0 -211.5 -36t-99.5 -77q0 -14 14 -40l-24 -21l-352 354l21 24q8 -1 13 -1q48 0 48 61v289q0 33 -14.5 50t-49.5 26v32h1082
q31 0 46.5 14t26.5 51h32v-361h-32q-11 36 -26.5 49.5t-46.5 13.5h-779v-294q165 82 383 82q285 0 448 -133q151 -123 151 -325q0 -154 -91 -276q-156 -210 -531 -210q-242 0 -417 86q-43 21 -140 78q-42 25 -76 25q-19 0 -59 -23z" />
    <glyph glyph-name="six" unicode="6" horiz-adv-x="1461" 
d="M1386 1286l-176 -327l-28 14q5 26 5 39q0 40 -64 80q-54 34 -137 55t-161 21q-166 0 -284 -87q-77 -57 -114 -137.5t-47 -210.5q101 90 204.5 129.5t238.5 39.5q218 0 374 -104q87 -58 138 -152q48 -91 48 -200q0 -214 -179 -344q-173 -126 -442 -126q-290 0 -453 146
q-108 96 -162 246q-51 144 -51 301q0 319 197 516q204 204 529 204q114 0 206.5 -21t212.5 -74q42 -19 66 -19q17 0 33 13q13 11 19 15zM769 674q-152 0 -248 -75q-80 -62 -80 -161t80 -162q95 -75 250 -75t250 75q80 63 80 159q0 101 -80 164q-94 74 -252 75z" />
    <glyph glyph-name="seven" unicode="7" horiz-adv-x="1461" 
d="M1041 1140h-851q-31 0 -47 -13.5t-26 -49.5h-32v353h32q10 -37 26 -51t47 -14h1080q31 0 47 14t26 51h32v-261l-614 -1012q-36 -59 -36 -76q0 -30 56 -49v-32h-489v32q43 12 71.5 38t66.5 87z" />
    <glyph glyph-name="eight" unicode="8" horiz-adv-x="1461" 
d="M1081 730q305 -79 305 -321q0 -163 -129 -284q-158 -149 -526 -149q-251 0 -414 73q-104 47 -173 145q-69 100 -69 214q0 243 305 322q-246 97 -246 292q0 138 112 235q152 132 484 132q232 0 388 -70q91 -41 150 -118t59 -179q0 -195 -246 -292zM728 1175
q-141 0 -223.5 -44.5t-82.5 -120.5t83 -120t225 -44t225.5 44t83.5 118q0 79 -81.5 123t-229.5 44zM728 618q-171 0 -272 -66q-75 -50 -75 -139q0 -95 93.5 -149.5t255.5 -54.5q176 0 275 66q75 51 75 136q0 98 -92 152t-260 55z" />
    <glyph glyph-name="nine" unicode="9" horiz-adv-x="1461" 
d="M75 79l177 327l28 -14q-6 -25 -6 -39q0 -40 64 -80q53 -33 137 -54.5t160 -21.5q167 0 285 87q77 58 114.5 138t46.5 210q-101 -90 -204.5 -129.5t-239.5 -39.5q-217 0 -372 103q-88 59 -138 153q-48 91 -48 199q0 216 179 345q174 126 440 126q290 0 454 -146
q109 -96 162 -246q51 -144 51 -301q0 -319 -197 -516q-204 -204 -529 -204q-114 0 -205 20.5t-214 74.5q-42 19 -65 19q-17 0 -34 -13q-13 -11 -19 -15zM690 1164q-153 0 -249 -75q-80 -62 -80 -162q0 -98 80 -161q95 -75 249 -75q155 0 250 75q80 63 80 159q0 101 -80 164
q-93 74 -250 75z" />
    <glyph glyph-name="colon" unicode=":" horiz-adv-x="628" 
d="M314 304q69 0 116.5 -48t47.5 -117q0 -67 -48.5 -115t-115.5 -48q-68 0 -116 48.5t-48 116.5q0 67 47.5 114.5t116.5 48.5zM314 1144q69 0 116.5 -48t47.5 -117q0 -67 -48.5 -115t-115.5 -48q-68 0 -116 48.5t-48 116.5q0 67 47.5 114.5t116.5 48.5z" />
    <glyph glyph-name="semicolon" unicode=";" horiz-adv-x="628" 
d="M197 -250q82 54 118 105t51 132q-48 -11 -70 -11q-66 0 -106 46t-40 120t40.5 118t107.5 44q90 0 138 -74q42 -67 42 -160q0 -220 -233 -384zM314 1144q69 0 116.5 -48t47.5 -117q0 -67 -48.5 -115t-115.5 -48q-68 0 -116 48.5t-48 116.5q0 67 47.5 114.5t116.5 48.5z
" />
    <glyph glyph-name="less" unicode="&#x3c;" 
d="M955 1266v-289l-580 -294l580 -295v-288l-887 462v243z" />
    <glyph glyph-name="equal" unicode="=" horiz-adv-x="1570" 
d="M234 753v324h30q8 -36 23 -50t43 -14h910q28 0 42.5 14t23.5 50h30v-324h-30q-9 36 -23.5 50t-42.5 14h-910q-29 0 -43 -14t-24 -50h-29zM234 288v324h30q8 -35 23 -49t43 -14h910q28 0 42.5 13.5t23.5 49.5h30v-324h-30q-9 37 -23.5 51t-42.5 14h-910q-29 0 -43 -14
t-24 -51h-29z" />
    <glyph glyph-name="greater" unicode="&#x3e;" 
d="M69 1266l887 -461v-243l-887 -462v288l580 295l-580 294v289z" />
    <glyph glyph-name="question" unicode="?" horiz-adv-x="1000" 
d="M213 980l-172 252l26 18q30 -15 42 -15q23 0 86 41q94 62 167.5 87.5t158.5 25.5q138 0 231 -65q125 -87 125 -238q0 -79 -40 -151t-138 -168q-68 -67 -88.5 -105.5t-20.5 -99.5q0 -27 12 -39t46 -21v-32h-329v32q40 13 53 33.5t24 91.5q11 64 30.5 101.5t81.5 115.5
q56 70 75.5 108.5t19.5 80.5q0 65 -42.5 104.5t-113.5 39.5q-106 0 -181 -76q-35 -36 -35 -69q0 -11 9 -34zM500 304q69 0 116.5 -48t47.5 -117q0 -67 -48.5 -115t-115.5 -48q-68 0 -116 48.5t-48 116.5q0 67 47.5 114.5t116.5 48.5z" />
    <glyph glyph-name="at" unicode="@" horiz-adv-x="1682" 
d="M1274 968l-114 -459q-3 -10 -3 -21q0 -45 62 -45q56 0 118 49q40 31 64 104.5t24 160.5q0 189 -132 314q-88 84 -206 128q-107 39 -212 39q-163 0 -319 -87q-158 -89 -236 -223q-63 -109 -63 -242q0 -149 77 -283q159 -276 532 -276q71 0 164 14.5t151 35.5q24 8 24 31
q0 7 -1 16l24 6l67 -234l-24 -6q-25 48 -54 48q-12 0 -35 -6q-204 -53 -341 -53q-295 0 -500 177q-232 199 -232 512q0 219 112 390q120 183 343 269q154 59 320 59q300 0 504 -180q186 -163 186 -414q0 -227 -144 -358q-96 -87 -193 -87q-75 0 -121.5 26.5t-86.5 92.5
q-59 -44 -144.5 -70t-175.5 -26q-123 0 -199 60q-84 68 -84 183q0 130 94 234q62 69 155.5 108t196.5 39q140 0 244 -98l22 72h136zM842 867q-100 0 -172 -55q-84 -65 -89 -168q-3 -65 42.5 -106t121.5 -41q130 0 214 61q84 62 84 143q0 79 -52 122t-149 44z" />
    <glyph glyph-name="A" unicode="A" horiz-adv-x="1666" 
d="M1123 348h-620l-92 -192q-19 -40 -19 -63q0 -44 67 -61v-32h-452v32q40 8 61 28t48 78l502 1049q24 50 24 80q0 46 -58 66v32h484v-32q-59 -17 -59 -59q0 -29 19 -66l520 -1052q33 -67 58 -91.5t67 -32.5v-32h-502v32q66 11 66 62q0 21 -20 62zM1037 535l-221 486
l-224 -486h445z" />
    <glyph glyph-name="B" unicode="B" horiz-adv-x="1651" 
d="M1339 715q230 -87 230 -322q0 -187 -134 -293q-68 -53 -157.5 -76.5t-221.5 -23.5h-933v32q36 10 50 26t14 47v1155q0 31 -14 47t-50 26v32h924q133 0 214 -20t142 -68q121 -95 121 -274q0 -200 -185 -288zM485 822h523q119 0 166 35q53 40 53 124q0 86 -50 122.5
t-169 36.5h-523v-318zM485 225h506q141 0 203 39q71 45 71 147q0 101 -71 147q-61 39 -203 39h-506v-372z" />
    <glyph glyph-name="C" unicode="C" horiz-adv-x="1718" 
d="M1446 469l190 -285l-26 -18q-28 26 -46 26t-101 -48q-172 -99 -289.5 -133.5t-279.5 -34.5q-323 0 -530 153q-122 89 -192 221q-81 151 -81 333q0 248 145 431q218 275 659 275q162 0 278 -34t290 -134q83 -47 101 -47t46 26l26 -18l-190 -285l-27 18q2 16 2 27
q0 29 -25 54.5t-89 61.5q-177 100 -375 100q-234 0 -373 -117q-164 -137 -164 -358t164 -358q139 -117 373 -117q198 0 375 100q64 36 89 61.5t25 54.5q0 11 -2 26z" />
    <glyph glyph-name="D" unicode="D" horiz-adv-x="1717" 
d="M187 105v1155q0 31 -14 47t-50 26v32h761q250 0 384 -57q192 -83 284 -274q73 -150 73 -351q0 -353 -217 -538q-91 -78 -213 -111.5t-311 -33.5h-761v32q36 10 50 26t14 47zM485 225h374q179 0 269 49q193 105 193 409q0 220 -104 337q-58 65 -140 92.5t-218 27.5h-374
v-915z" />
    <glyph glyph-name="E" unicode="E" horiz-adv-x="1556" 
d="M485 599v-374h878q30 0 46 14t26 50h32v-353h-32q-10 36 -26 50t-46 14h-1240v32q36 10 50 26t14 47v1155q0 31 -14 47t-50 26v32h1216q30 0 46 14.5t26 50.5h32v-353h-32q-10 35 -26 49t-46 14h-854v-324h554q30 0 46 14t26 50h32v-345h-32q-10 35 -26 49.5t-46 14.5
h-554z" />
    <glyph glyph-name="F" unicode="F" horiz-adv-x="1490" 
d="M485 597v-492q0 -31 14.5 -47.5t49.5 -25.5v-32h-426v32q36 10 50 26t14 47v1155q0 31 -14 47t-50 26v32h1208q30 0 46 14t26 51h32v-353h-32q-10 36 -26 49.5t-46 13.5h-846v-326h553q31 0 47 14.5t26 50.5h32v-345h-32q-10 35 -26 49t-47 14h-553z" />
    <glyph glyph-name="G" unicode="G" horiz-adv-x="1757" 
d="M1337 491h-337q-31 0 -46.5 -14t-25.5 -50h-32v318h32q10 -37 25.5 -50.5t46.5 -13.5h648v-32q-36 -10 -50.5 -26t-14.5 -47v-280q0 -31 14 -47t51 -26v-25q-389 -222 -754 -222q-331 0 -540 157q-263 198 -263 550q0 328 234 522q222 184 590 184q117 0 220.5 -21.5
t235.5 -72.5q68 -27 97 -27q21 0 49 23l28 -15l-160 -327l-29 15q-1 33 -9 47.5t-36 35.5q-61 46 -179 78.5t-223 32.5q-214 0 -355 -120q-159 -136 -159 -359q0 -216 155 -349q142 -122 374 -122q113 0 223 26t190 71v186z" />
    <glyph glyph-name="H" unicode="H" horiz-adv-x="1757" 
d="M1272 596h-787v-492q0 -30 14.5 -46.5t49.5 -25.5v-32h-426v32q36 10 50 26t14 46v1157q0 30 -14 46t-50 26v32h426v-32q-36 -9 -50 -25.5t-14 -46.5v-440h787v440q0 30 -14 46.5t-50 25.5v32h426v-32q-36 -10 -50 -26t-14 -46v-1157q0 -30 14 -46t50 -26v-32h-426v32
q35 9 49.5 25.5t14.5 46.5v492z" />
    <glyph glyph-name="I" unicode="I" horiz-adv-x="671" 
d="M187 105v1156q0 30 -14 46t-50 26v32h426v-32q-36 -9 -50 -25.5t-14 -46.5v-1156q0 -31 14.5 -47.5t49.5 -25.5v-32h-426v32q36 10 50 26t14 47z" />
    <glyph glyph-name="J" unicode="J" horiz-adv-x="1238" 
d="M6 52l128 346l30 -11q-1 -12 -1 -20q0 -41 51 -76q54 -35 144.5 -59t173.5 -24q134 0 195 61q31 31 42 73.5t11 128.5v789q0 31 -14 47t-50 26v32h426v-32q-36 -10 -50 -26t-14 -47v-804q0 -198 -55 -286q-58 -93 -172 -143.5t-266 -50.5q-87 0 -151 11.5t-209 54.5
q-90 26 -128 26q-33 0 -61 -28z" />
    <glyph glyph-name="K" unicode="K" horiz-adv-x="1642" 
d="M690 638l-205 -167v-366q0 -31 14.5 -47.5t49.5 -25.5v-32h-426v32q36 10 50 26t14 47v1156q0 30 -14 46t-50 26v32h426v-32q-36 -9 -50 -25.5t-14 -46.5v-478l562 459q39 32 39 51q0 29 -58 40v32h558v-32q-35 -7 -50 -16t-87 -68l-77 -64l-464 -373l526 -633
q73 -88 105.5 -113.5t81.5 -33.5v-32h-533v32q53 11 53 38q0 14 -48 74z" />
    <glyph glyph-name="L" unicode="L" horiz-adv-x="1449" 
d="M485 225h839q31 0 47 14t26 50h32v-353h-32q-10 36 -26 50t-47 14h-1201v32q36 10 50 26t14 47v1155q0 31 -14 47t-50 26v32h426v-32q-36 -9 -50 -25.5t-14 -47.5v-1035z" />
    <glyph glyph-name="M" unicode="M" horiz-adv-x="1979" 
d="M963 19l-503 924v-838q0 -31 14 -47t50 -26v-32h-401v32q36 10 50 26t14 47v1156q0 30 -14 46t-50 26v32h526v-32q-47 -12 -47 -55q0 -20 14 -46l372 -686l377 674q25 46 25 67q0 41 -50 46v32h516v-32q-36 -10 -50 -26t-14 -46v-1156q0 -31 14 -47t50 -26v-32h-426v32
q35 9 49.5 25.5t14.5 47.5v838z" />
    <glyph glyph-name="N" unicode="N" horiz-adv-x="1785" 
d="M460 935v-830q0 -31 14 -47t50 -26v-32h-401v32q36 10 50 26t14 47v1156q0 30 -14 46t-50 26v32h464v-32q-43 -11 -43 -46q0 -24 28 -53l753 -783v810q0 30 -14 46t-50 26v32h401v-32q-36 -10 -50 -26t-14 -46v-1156q0 -31 14 -47t50 -26v-32h-430v32q42 9 42 43
q0 20 -49 70z" />
    <glyph glyph-name="O" unicode="O" horiz-adv-x="1752" 
d="M873 1389q357 0 566 -193q221 -202 221 -522q0 -196 -106 -366q-207 -332 -679 -332q-354 0 -563 193q-112 103 -170 247q-51 127 -51 267q0 205 105 375q201 325 677 331zM874 1158q-195 0 -325 -116q-154 -137 -154 -359t154 -359q130 -116 327 -116t326 116
q77 69 118 169q36 89 36 184q0 232 -154 365q-131 114 -328 116z" />
    <glyph glyph-name="P" unicode="P" horiz-adv-x="1567" 
d="M485 554v-450q0 -30 14.5 -46.5t49.5 -25.5v-32h-426v32q36 10 50 26t14 46v1156q0 31 -14 47t-50 26v32h852q149 0 236.5 -20t154.5 -69q69 -51 108 -134q39 -86 39 -182q0 -138 -74 -242q-64 -89 -169.5 -126.5t-294.5 -37.5h-490zM485 779h455q136 0 191 29
q35 19 56.5 60.5t21.5 91.5q0 49 -21.5 90.5t-56.5 60.5q-54 29 -191 29h-455v-361z" />
    <glyph glyph-name="Q" unicode="Q" horiz-adv-x="1752" 
d="M1447 176l106 -110q36 -38 48.5 -46.5t29.5 -8.5q14 0 46 13l21 -24l-292 -266l-22 24q20 33 20 49q0 18 -56 85l-118 144q-148 -60 -360 -60q-349 0 -558 193q-112 103 -170 247q-51 127 -51 267q0 205 106 374q206 332 679 332q355 0 563 -193q112 -103 170 -246
q51 -127 51 -267q0 -301 -213 -507zM1250 375q106 132 106 309q0 221 -154 358q-129 116 -326 116q-198 0 -327 -116q-154 -138 -154 -359q0 -222 154 -359q130 -116 328 -116q94 0 184 32q-11 14 -19 24q-106 136 -250 170v28q72 56 164 56q66 0 131.5 -32t162.5 -111z" />
    <glyph glyph-name="R" unicode="R" horiz-adv-x="1656" 
d="M485 557v-453q0 -30 14.5 -46.5t49.5 -25.5v-32h-426v32q36 10 50 26t14 46v1156q0 31 -14 47t-50 26v32h854q156 0 247.5 -18t159.5 -63q79 -52 118 -141q37 -86 37 -184q0 -334 -371 -391l265 -377q70 -99 102.5 -127.5t79.5 -31.5v-32h-494v32q51 8 51 36q0 18 -47 87
l-276 402h-364zM485 782h460q102 0 144 6t77 25q76 41 76 148t-76 148q-36 20 -76.5 25.5t-144.5 5.5h-460v-358z" />
    <glyph glyph-name="S" unicode="S" horiz-adv-x="1475" 
d="M1393 1250l-163 -321l-28 16q1 10 1 16q0 34 -58 73q-178 124 -418 124q-106 0 -187 -26q-59 -20 -95.5 -60t-36.5 -87q0 -77 93 -105q48 -14 206 -30l157 -16q140 -15 226.5 -41t153.5 -73q68 -49 107.5 -129t39.5 -171q0 -144 -93 -256q-84 -102 -261 -151
q-132 -37 -283 -37q-271 0 -535 130q-56 26 -67 26q-13 0 -41 -22l-29 15l148 335l29 -14v-13q0 -45 43 -83q65 -58 201 -100t258 -42q133 0 227 45q52 25 83 66.5t31 86.5q0 68 -73 97q-51 20 -206 37l-154 16q-155 16 -219 30.5t-128 46.5q-91 45 -143 135q-47 81 -47 186
q0 173 119 286q156 149 468 149q131 0 244 -26.5t282 -97.5q58 -23 71 -23q21 0 49 23z" />
    <glyph glyph-name="T" unicode="T" horiz-adv-x="1381" 
d="M840 1140v-1035q0 -31 14 -47t50 -26v-32h-426v32q36 10 50 26t14 47v1035h-424q-30 0 -46 -13.5t-26 -49.5h-32v353h32q11 -37 26.5 -51t45.5 -14h1145q31 0 47 14t26 51h32v-353h-32q-10 36 -26 49.5t-47 13.5h-423z" />
    <glyph glyph-name="U" unicode="U" horiz-adv-x="1671" 
d="M1512 1260v-765q0 -217 -80 -325q-144 -194 -595 -194q-326 0 -499 105q-101 61 -140 166q-38 104 -38 248v765q0 31 -14 47t-50 26v32h427v-32q-36 -9 -50.5 -25.5t-14.5 -47.5v-681q0 -118 13 -174.5t49 -94.5q96 -102 328 -102q233 0 329 102q35 38 48 94.5t13 174.5
v681q0 31 -14 47t-50 26v32h402v-32q-36 -10 -50 -26t-14 -47z" />
    <glyph glyph-name="V" unicode="V" horiz-adv-x="1577" 
d="M797 396l362 802q23 51 23 79q0 43 -66 56v32h467v-32q-44 -6 -61 -25t-59 -110l-473 -1021q-30 -65 -30 -85q0 -51 63 -60v-32h-470v32q63 9 63 61q0 19 -30 84l-473 1021q-42 91 -59 110t-61 25v32h485v-32q-66 -13 -66 -56q0 -28 23 -79z" />
    <glyph glyph-name="W" unicode="W" horiz-adv-x="2311" 
d="M1157 961l-312 -788q-27 -60 -27 -76q0 -46 74 -65v-32h-439v32q67 13 67 68q0 15 -28 89l-391 1007q-29 75 -52.5 101.5t-68.5 35.5v32h474v-32q-63 -14 -63 -59q0 -23 16 -66l270 -722l292 726q19 47 19 62q0 46 -67 59v32h496v-32q-68 -18 -68 -65q0 -16 17 -60
l278 -725l269 713q21 53 21 79q0 44 -72 58v32h469v-32q-50 -14 -69 -36t-50 -101l-391 -1007q-28 -72 -28 -96q0 -49 71 -61v-32h-445v32q70 11 70 67q0 19 -31 90z" />
    <glyph glyph-name="X" unicode="X" horiz-adv-x="1541" 
d="M943 711l413 -535q68 -88 97.5 -112t81.5 -32v-32h-541v32q60 12 60 52q0 21 -36 68l-263 338l-250 -327q-41 -53 -41 -75q0 -50 67 -56v-32h-524v32q46 5 71.5 26t102.5 118l412 520l-379 496q-74 97 -98.5 116.5t-78.5 24.5l-1 32h548v-32q-60 -16 -60 -61
q0 -24 43 -80l214 -275l217 275q48 61 48 86q0 44 -69 55v32h533v-32q-48 -5 -68.5 -21.5t-105.5 -119.5z" />
    <glyph glyph-name="Y" unicode="Y" horiz-adv-x="1460" 
d="M879 571v-466q0 -31 14.5 -47t50.5 -26v-32h-429v32q36 10 51 26t15 47v466l-441 621q-57 80 -89.5 107.5t-77.5 33.5v32h539v-32q-67 -11 -67 -62q0 -18 41 -79l246 -366l253 366q41 59 41 80q0 23 -18 39.5t-49 21.5v32h528v-32q-45 -6 -77.5 -33.5t-89.5 -107.5z" />
    <glyph glyph-name="Z" unicode="Z" horiz-adv-x="1462" 
d="M566 225h710q30 0 46 14t26 50h32v-353h-32q-10 36 -26 50t-46 14h-1194v70l794 1070h-683q-31 0 -47 -13.5t-26 -49.5h-32v353h32q11 -37 26.5 -51t46.5 -14h1176v-57z" />
    <glyph glyph-name="bracketleft" unicode="[" horiz-adv-x="683" 
d="M134 1475h430q32 0 48 14t27 50h27v-268h-27q-10 36 -26.5 50.5t-48.5 14.5h-147v-1306h134q42 0 59.5 13t28.5 52h27v-268h-27q-10 35 -27 49.5t-48 14.5l-430 -1v25q35 9 49.5 24.5t14.5 44.5v1396q0 29 -14.5 45t-49.5 25v25z" />
    <glyph glyph-name="backslash" unicode="\" horiz-adv-x="1555" 
d="M519 1192l788 -1016q70 -89 99 -112.5t80 -31.5v-32h-468v32q60 12 60 52q0 21 -36 68l-804 1040q-72 95 -95.5 114.5t-74.5 26.5v32h467v-32q-60 -16 -60 -61q0 -24 44 -80z" />
    <glyph glyph-name="bracketright" unicode="]" horiz-adv-x="683" 
d="M548 1475v-25q-35 -9 -49.5 -25t-14.5 -45v-1396q0 -29 14.5 -44t49.5 -25v-25l-430 1q-31 0 -48 -14.5t-27 -49.5h-27v268h27q11 -39 28.5 -52t59.5 -13h134v1306h-147q-32 0 -48.5 -14.5t-26.5 -50.5h-27v268h27q11 -36 27 -50t48 -14h430z" />
    <glyph glyph-name="asciicircum" unicode="^" 
d="M293 723h-258l316 650h323l316 -650h-259l-219 453z" />
    <glyph glyph-name="underscore" unicode="_" 
d="M0 -119h1024v-174h-1024v174z" />
    <glyph glyph-name="grave" unicode="`" 
d="M246 1533h304v-27q-28 -3 -28 -19q0 -6 4 -15l66 -163q9 -22 19 -29t34 -7v-27h-217v27h5q20 0 20 16q0 9 -6 16l-142 174q-20 26 -59 27v27z" />
    <glyph glyph-name="a" unicode="a" horiz-adv-x="1421" 
d="M947 280h-515l-58 -122q-21 -44 -21 -69q0 -48 64 -61v-28h-412v28q38 6 56.5 23t43.5 67l409 828q23 47 23 82q0 41 -56 64v28h435v-28q-55 -22 -55 -68q0 -33 25 -81l424 -803q35 -66 55 -85.5t61 -27.5v-27h-457v27q65 11 65 61q0 31 -25 77zM866 437l-183 359
l-174 -359h357z" />
    <glyph glyph-name="b" unicode="b" horiz-adv-x="1387" 
d="M1127 602q83 -38 122 -76q73 -72 73 -194q0 -164 -124 -253q-110 -79 -303 -79h-797v28q35 9 49.5 26t14.5 48v916q0 31 -14 47t-50 27v28h784q206 0 302 -74q102 -78 102 -214q0 -80 -35.5 -131t-123.5 -99zM430 700h407q96 0 136 24.5t40 84.5q0 59 -39.5 83.5
t-136.5 24.5h-407v-217zM430 203h417q202 0 202 147t-202 147h-417v-294z" />
    <glyph glyph-name="c" unicode="c" horiz-adv-x="1427" 
d="M1193 401l169 -246l-23 -17q-24 17 -38 17q-17 0 -79 -37q-137 -80 -242 -111t-242 -31q-274 0 -447 131q-98 75 -156 188q-62 122 -62 265q0 197 114 348q179 236 549 236q137 0 243.5 -31t242.5 -111q62 -37 79 -37q14 0 38 17l23 -18l-169 -245l-22 16q1 12 2 15
q1 9 1 13q0 49 -135 111q-128 59 -258 59q-182 0 -300 -96q-135 -108 -135 -277q0 -170 135 -278q119 -95 300 -95q142 0 283 71q110 56 110 98q0 2 -3 28z" />
    <glyph glyph-name="d" unicode="d" horiz-adv-x="1441" 
d="M162 102v916q0 31 -14 47t-50 27v28h657q205 0 323 -51q166 -72 239 -238q51 -116 51 -271q0 -287 -171 -435q-77 -66 -181.5 -95.5t-260.5 -29.5h-657v28q35 9 49.5 26t14.5 48zM430 203h286q197 0 286 90q93 94 93 267t-93 267q-46 47 -114 68.5t-172 21.5h-286v-714z
" />
    <glyph glyph-name="e" unicode="e" horiz-adv-x="1314" 
d="M430 476v-273h711q31 0 47.5 14t26.5 51h28v-332h-28q-9 35 -26 49.5t-48 14.5h-1043v28q35 9 49.5 26t14.5 48v916q0 31 -14 47t-50 27v28h1012q32 0 48.5 14t26.5 50h27v-332h-27q-10 37 -26.5 51t-48.5 14h-680v-246h422q31 0 47.5 14t27.5 50h27v-324h-27
q-10 36 -26.5 50.5t-48.5 14.5h-422z" />
    <glyph glyph-name="f" unicode="f" horiz-adv-x="1248" 
d="M430 476v-374q0 -31 14 -47.5t50 -27.5v-27h-396v28q35 9 49.5 26t14.5 48v916q0 31 -14 47t-50 27v28h1004q32 0 48.5 14t26.5 50h27v-332h-27q-10 36 -26.5 50.5t-48.5 14.5h-672v-246h422q32 0 48 14t27 50h27v-324h-27q-10 36 -26.5 50.5t-48.5 14.5h-422z" />
    <glyph glyph-name="g" unicode="g" horiz-adv-x="1474" 
d="M1108 432h-255q-32 0 -48.5 -14t-26.5 -50h-27v296h27q10 -35 26.5 -49t48.5 -14h533v-29q-35 -10 -49.5 -29t-14.5 -54v-236q0 -31 14.5 -48t49.5 -27v-23q-324 -179 -646 -179q-278 0 -450 131q-93 72 -150 178q-67 126 -67 269q0 198 122 352q190 238 562 238
q163 0 372 -72q83 -28 97 -28q17 0 40 16l24 -13l-133 -282l-24 12v6q0 37 -74 76q-137 73 -294 73q-181 0 -297 -99q-122 -104 -122 -280q0 -165 111 -264q114 -101 320 -101q196 0 331 73v171z" />
    <glyph glyph-name="h" unicode="h" horiz-adv-x="1486" 
d="M1055 487h-625v-385q0 -31 14 -47.5t50 -27.5v-27h-396v28q35 9 49.5 26t14.5 48v916q0 31 -14 47t-50 27v28h396v-28q-36 -10 -50 -26.5t-14 -47.5v-328h625v328q0 31 -13.5 47t-50.5 27v28h396v-28q-36 -10 -50 -26.5t-14 -47.5v-916q0 -31 14 -47.5t50 -27.5v-27h-396
v28q35 9 49.5 26t14.5 48v385z" />
    <glyph glyph-name="i" unicode="i" horiz-adv-x="593" 
d="M430 1018v-916q0 -31 14 -47.5t50 -27.5v-27h-396v28q35 9 49.5 26t14.5 48v916q0 31 -14 47t-50 27v28h396v-28q-36 -10 -50 -26.5t-14 -47.5z" />
    <glyph glyph-name="j" unicode="j" horiz-adv-x="1035" 
d="M5 30l99 305l26 -9q0 -36 22 -57q32 -31 112.5 -56t151.5 -25q107 0 158.5 48t51.5 148v634q0 31 -14 47t-50 27v28h396v-28q-36 -10 -50 -26.5t-14 -47.5v-639q0 -184 -62 -264q-51 -66 -151 -102.5t-227 -36.5q-140 0 -346 66q-19 6 -31 6q-23 0 -45 -26z" />
    <glyph glyph-name="k" unicode="k" horiz-adv-x="1403" 
d="M589 511l-159 -130v-279q0 -31 14 -47.5t50 -27.5v-27h-396v28q35 9 49.5 26t14.5 48v916q0 31 -14 47t-50 27v28h396v-28q-36 -10 -50 -26.5t-14 -47.5v-367l421 336q47 37 47 65q0 30 -58 40v28h504v-27q-38 -6 -63.5 -23t-126.5 -105l-378 -301l416 -478
q80 -93 114.5 -121t79.5 -38v-27h-490v27q55 13 55 40q0 10 -6.5 19.5t-46.5 55.5z" />
    <glyph glyph-name="l" unicode="l" horiz-adv-x="1176" 
d="M430 203h627q32 0 48 14t27 51h27v-332h-27q-10 36 -26.5 50t-48.5 14h-959v28q35 9 49.5 26t14.5 48v916q0 31 -14 47t-50 27v28h396v-28q-36 -10 -50 -26.5t-14 -47.5v-815z" />
    <glyph glyph-name="m" unicode="m" horiz-adv-x="1677" 
d="M814 35l-408 701v-634q0 -31 14 -47.5t50 -27.5v-27h-372v28q35 9 49.5 26t14.5 48v916q0 31 -14 47.5t-50 26.5v28h473v-28q-47 -15 -47 -57q0 -41 34 -100l279 -471l281 464q48 79 48 112q0 41 -49 52v28h461v-28q-36 -10 -50 -26.5t-14 -47.5v-916q0 -31 14 -48
t50 -27v-27h-396v28q35 9 49.5 26t14.5 48v634z" />
    <glyph glyph-name="n" unicode="n" horiz-adv-x="1523" 
d="M406 738v-636q0 -31 14.5 -48t49.5 -27v-27h-372v28q35 9 49.5 26t14.5 48v916q0 31 -14 47t-50 27v28h430v-28q-44 -11 -44 -39q0 -24 32 -56l600 -596v617q0 31 -14 47.5t-50 26.5v28h372v-28q-36 -10 -50 -26.5t-14 -47.5v-916q0 -31 14 -47.5t50 -27.5v-27h-401v27
q44 9 44 37q0 14 -12 29t-55 59z" />
    <glyph glyph-name="o" unicode="o" horiz-adv-x="1460" 
d="M728 1144q267 0 445 -136q213 -164 213 -457q0 -275 -213 -439q-176 -136 -443 -136t-443 136q-214 164 -214 448q0 287 214 448q177 133 441 136zM729 932q-173 0 -282 -111q-101 -104 -101 -261q0 -156 101 -260q109 -112 283 -112q173 0 282 112q101 103 101 255
q0 165 -101 266q-110 109 -283 111z" />
    <glyph glyph-name="p" unicode="p" horiz-adv-x="1335" 
d="M430 460v-358q0 -31 14 -47.5t50 -27.5v-27h-396v28q35 9 49.5 26t14.5 48v916q0 31 -14 47t-50 27v28h730q217 0 327 -65q64 -38 100 -108t36 -157q0 -167 -114 -248.5t-349 -81.5h-398zM430 663h382q105 0 146 20q60 29 60 107t-60 107q-40 20 -146 20h-382v-254z" />
    <glyph glyph-name="q" unicode="q" horiz-adv-x="1480" 
d="M1215 147l100 -107q40 -42 68 -41q15 1 36 18l18 -20l-242 -222l-18 20q18 21 18 38t-46 70l-113 130q-134 -57 -307 -57q-266 0 -442 136q-214 165 -214 448t214 448q177 136 443 136q267 0 443 -136q214 -165 214 -448q0 -252 -172 -413zM1037 329q77 97 77 233
q0 155 -101 259q-108 111 -283 111q-174 0 -283 -111q-101 -104 -101 -261q0 -156 101 -260q109 -112 282 -112q77 0 153 27q-111 138 -218 164v17q65 46 130 46q108 0 243 -113z" />
    <glyph glyph-name="r" unicode="r" horiz-adv-x="1406" 
d="M430 460v-358q0 -31 14 -47.5t50 -27.5v-27h-396v28q35 9 49.5 26t14.5 48v916q0 31 -14 47t-50 27v28h734q143 0 218 -14.5t134 -52.5q121 -79 121 -258q0 -136 -74.5 -212.5t-240.5 -110.5l212 -296q58 -82 92.5 -111.5t78.5 -37.5v-27h-470v27q52 14 52 45
q0 22 -32 67l-224 321h-269zM430 663h404q92 0 136 20q62 27 62 107q0 71 -43.5 99t-154.5 28h-404v-254z" />
    <glyph glyph-name="s" unicode="s" horiz-adv-x="1261" 
d="M1175 1019l-135 -261l-24 13q0 33 -21 52q-57 51 -168 84t-225 33q-97 0 -172 -27q-108 -39 -108 -113q0 -49 52 -69.5t201 -32.5l158 -12q207 -16 315 -80q60 -36 99 -96q49 -75 49 -169q0 -171 -154 -270q-147 -95 -398 -95q-253 0 -489 107q-16 7 -27 7q-20 0 -37 -24
l-25 10l115 274l25 -10v-8q0 -26 20 -44q50 -44 173 -76.5t243 -32.5q106 0 190 28q104 34 104 110q0 61 -72 85q-48 16 -173 27l-157 13q-127 10 -194 26t-117 47q-64 40 -100 109t-36 151q0 184 158 281q144 88 356 88q115 0 214.5 -25.5t237.5 -89.5q41 -19 57 -19t41 22
z" />
    <glyph glyph-name="t" unicode="t" horiz-adv-x="1165" 
d="M716 917v-815q0 -31 14 -47.5t50 -27.5v-27h-396v28q35 9 49.5 26t14.5 48v815h-330q-32 0 -48.5 -14.5t-26.5 -50.5h-27v332h28q9 -35 25.5 -49.5t48.5 -14.5h928q32 0 48.5 14t26.5 50h27v-332h-27q-10 36 -26.5 50.5t-48.5 14.5h-330z" />
    <glyph glyph-name="u" unicode="u" horiz-adv-x="1414" 
d="M1273 1018v-593q0 -203 -80 -298q-129 -151 -486 -151q-239 0 -386 73q-106 53 -145 151q-36 90 -36 225v593q0 31 -14 47t-50 27v28h397v-28q-37 -10 -51 -26.5t-14 -47.5v-539q0 -94 16.5 -144t57.5 -82q82 -65 237 -65t237 65q40 32 56 82t16 144v539q0 31 -13.5 47
t-50.5 27v28h373v-28q-36 -10 -50 -26.5t-14 -47.5z" />
    <glyph glyph-name="v" unicode="v" horiz-adv-x="1331" 
d="M674 354l271 593q24 51 24 76q0 50 -65 69v28h433v-28q-40 -13 -58 -32t-46 -78l-392 -825q-21 -44 -21 -67q0 -50 66 -63v-27h-439v27q65 13 65 63q0 23 -21 67l-392 825q-28 60 -45.5 78.5t-58.5 31.5v28h449v-28q-64 -20 -64 -69q0 -22 25 -76z" />
    <glyph glyph-name="w" unicode="w" horiz-adv-x="1965" 
d="M980 778l-245 -609q-18 -45 -18 -74q0 -56 66 -68v-27h-417v27q60 15 60 68q0 27 -18 74l-296 764q-34 88 -57.5 117.5t-70.5 41.5v28h426v-28q-62 -20 -62 -63q0 -21 20 -72l210 -529l209 525q19 47 19 72q0 50 -67 67v28h498v-28q-65 -21 -65 -70q0 -22 17 -65
l204 -529l204 534q13 35 13 61q0 28 -14 43t-51 26v28h436v-28q-49 -18 -71.5 -45.5t-56.5 -113.5l-300 -764q-16 -41 -16 -72q0 -58 68 -70v-27h-434v27q64 18 64 73q0 14 -22 69z" />
    <glyph glyph-name="x" unicode="x" horiz-adv-x="1300" 
d="M799 580l331 -439q43 -57 80 -82.5t84 -31.5v-27h-515v27q63 14 63 53q0 20 -33 64l-182 239l-183 -239q-27 -35 -27 -61q0 -36 65 -56v-27h-477v27q48 11 75 31.5t75 82.5l330 427l-290 388q-93 124 -164 136v28h512v-28q-65 -18 -65 -60q0 -25 31 -67l152 -203l140 190
q41 56 41 81q0 45 -66 59v28h488v-28q-54 -11 -79.5 -31.5t-90.5 -104.5z" />
    <glyph glyph-name="y" unicode="y" horiz-adv-x="1226" 
d="M747 491v-389q0 -31 14 -47.5t50 -27.5v-27h-396v27q36 10 50 26.5t14 48.5v389l-332 457q-56 77 -89.5 105.5t-79.5 38.5v28h504v-28q-65 -17 -65 -61q0 -22 47 -88l163 -226l159 226q47 67 47 89q0 42 -64 60l-1 28h480v-28q-46 -10 -79.5 -38.5t-89.5 -105.5z" />
    <glyph glyph-name="z" unicode="z" horiz-adv-x="1247" 
d="M511 203h568q32 0 48 14.5t27 50.5h27v-332h-28q-9 35 -25.5 49.5t-48.5 14.5h-1003v60l653 857h-543q-32 0 -48 -14t-27 -51h-27v332h27q10 -36 26.5 -50t48.5 -14h985v-49z" />
    <glyph glyph-name="braceleft" unicode="{" horiz-adv-x="683" 
d="M669 -173h-27q-10 38 -27.5 51t-58.5 13h-232q-61 0 -116 42q-66 50 -65 112v373q-2 112 -12.5 142.5t-49.5 30.5h-62q-22 0 -33.5 -14t-19.5 -51h-24v313h24q8 -37 19 -50.5t34 -13.5h62q39 0 49.5 30t12.5 142v374q0 58 56.5 106t124.5 48h232q42 0 59.5 13t26.5 51h27
v-279h-27q-10 39 -27 52t-59 13h-82q-110 -10 -108 -144v-355q0 -45 -17.5 -75t-65.5 -68q48 -38 65.5 -68t17.5 -76v-354q-2 -134 108 -144h82q42 0 59 13t27 52h27v-279z" />
    <glyph glyph-name="bar" unicode="|" 
d="M366 1365h292v-1706h-292v1706z" />
    <glyph glyph-name="braceright" unicode="}" horiz-adv-x="683" 
d="M14 -173v279h27q10 -39 27 -52t59 -13h82q111 11 109 144v354q0 46 17.5 76t65.5 68q-48 38 -65.5 68t-17.5 75v355q2 133 -109 144h-82q-41 0 -58.5 -13t-27.5 -52h-27v279h27q10 -38 27 -51t59 -13h233q61 0 116 -42q65 -49 65 -112v-374q2 -112 12.5 -142t48.5 -30h62
q23 0 34 13.5t19 50.5h24v-313h-24q-8 38 -19 51.5t-34 13.5h-62q-38 0 -48.5 -30.5t-12.5 -142.5v-373q0 -57 -56.5 -105.5t-124.5 -48.5h-233q-41 0 -58.5 -13t-27.5 -51h-27z" />
    <glyph glyph-name="asciitilde" unicode="~" horiz-adv-x="1365" 
d="M332 484l-142 118q40 96 87 158q88 116 213 116q72 0 225 -68q127 -56 172 -56q78 0 150 129l142 -118q-48 -110 -93 -165q-88 -110 -209 -110q-39 0 -77.5 13t-201.5 82q-73 31 -117 31q-43 0 -76 -29t-73 -101z" />
    <glyph glyph-name="exclamdown" unicode="&#xa1;" horiz-adv-x="774" 
d="M518 885v-32q-41 -11 -52 -24t-11 -49q0 -21 3 -45l73 -615q6 -53 16.5 -67t49.5 -21v-32h-420v32q39 7 49.5 21t16.5 67l73 615q3 24 3 45q0 35 -11 48t-52 25v32h262zM387 1389q68 0 116 -48.5t48 -118.5q0 -66 -48.5 -113.5t-115.5 -47.5q-68 0 -116 48t-48 115
q0 68 47.5 116t116.5 49z" />
    <glyph glyph-name="cent" unicode="&#xa2;" horiz-adv-x="1461" 
d="M706 105q-162 13 -286 76q-135 68 -215 197q-87 138 -87 308q0 226 146 386q155 171 442 194v53q0 32 -14 48.5t-50 26.5v27h273v-27q-36 -11 -50 -27t-14 -48v-52q112 -4 201.5 -36t260.5 -129q19 -11 33 -11t39 17l22 -18l-169 -245l-22 17q2 14 2 21q0 44 -61 78
q-87 50 -151 70t-155 27v-744q139 10 258 70q110 56 110 98q0 2 -3 28l22 17l169 -246l-23 -17q-23 17 -39 17q-14 0 -120 -61q-96 -55 -177 -80t-197 -36v-58q0 -32 14 -48.5t50 -26.5v-27h-273v27q36 11 50 27t14 48v59zM706 326v720q-111 -29 -178 -83
q-134 -109 -134 -277q0 -169 134 -277q67 -54 178 -83z" />
    <glyph glyph-name="sterling" unicode="&#xa3;" horiz-adv-x="1461" 
d="M309 805q-15 120 -15 175q0 162 104 262q73 69 187 108t246 39q183 0 319 -67q59 -29 152 -99q52 -39 84 -39q12 0 29 10l20 -25l-292 -211l-20 26q18 12 18 33q0 36 -63 80q-88 60 -220 60q-129 0 -199.5 -53t-70.5 -149q0 -35 10 -150h228q31 0 47 14t26 50h32v-324
h-32q-10 36 -26 50.5t-47 14.5h-206q7 -67 7 -108q0 -92 -22 -144t-89 -117q105 30 186 30q71 0 177 -26q87 -22 121 -22q47 0 86.5 27t39.5 61q0 23 -21 41l22 23l288 -221l-19 -23q-22 12 -37 12q-25 0 -111 -58q-72 -48 -129 -68t-126 -20q-41 0 -73.5 4.5t-186.5 31.5
q-55 10 -139 10q-199 0 -356 -81l-96 217q112 60 154.5 129.5t42.5 192.5q0 42 -5 109h-81q-31 0 -47 -14.5t-26 -50.5h-32v324h32q10 -36 26 -50t47 -14h56z" />
    <glyph glyph-name="currency" unicode="&#xa4;" horiz-adv-x="1570" 
d="M1305 306l102 -102q23 -23 47 -23q20 0 50 17l23 -22l-235 -235l-23 23q18 30 18 49q0 24 -24 47l-120 120q-160 -81 -357 -81q-202 0 -360 81l-120 -120q-23 -23 -23 -47q0 -19 18 -49l-23 -23l-235 235l23 22q30 -17 49 -17q24 0 47 23l103 103q-109 156 -109 375
t109 377l-103 102q-23 24 -47 24q-19 0 -49 -18l-23 23l235 234l23 -22q-18 -30 -18 -50q0 -24 23 -47l121 -120q155 81 359 81q203 0 357 -82l120 121q24 24 24 47q0 19 -18 50l23 22l235 -234l-23 -23q-31 18 -49 18q-24 0 -48 -24l-101 -101q108 -155 108 -378
q0 -220 -109 -376zM784 1054q-160 0 -261 -111q-94 -103 -94 -260t94 -260q101 -112 262 -112t262 112q94 102 94 255q0 162 -94 265q-99 109 -263 111z" />
    <glyph glyph-name="yen" unicode="&#xa5;" horiz-adv-x="1461" 
d="M582 404h-291q-31 0 -47 -17.5t-26 -61.5h-32v340h32q10 -36 26 -50t47 -14h272l-119 236h-235q-31 0 -47 -17.5t-26 -61.5h-32v340h32q10 -36 26 -50t47 -14h139l-99 158q-42 67 -82 101t-85 40v32h540v-32q-67 -11 -67 -61q0 -11 4.5 -21.5t31.5 -61.5l143 -363
l148 363q27 50 31.5 60.5t4.5 22.5q0 50 -67 61v32h527v-32q-45 -6 -85 -40t-82 -101l-98 -158h139q30 0 46.5 14.5t25.5 49.5h32v-340h-32q-9 44 -25.5 61.5t-46.5 17.5h-234l-119 -236h271q31 0 47 14.5t25 49.5h32v-340h-32q-9 44 -25.5 61.5t-46.5 17.5h-290v-299
q0 -31 14.5 -47t50.5 -26v-32h-429v32q37 10 51.5 26t14.5 47v299z" />
    <glyph glyph-name="brokenbar" unicode="&#xa6;" 
d="M366 1365h292v-716h-292v716zM366 314h292v-655h-292v655z" />
    <glyph glyph-name="section" unicode="&#xa7;" horiz-adv-x="1374" 
d="M1137 457q86 -60 114.5 -109t28.5 -136q0 -152 -111 -253q-135 -123 -438 -123q-155 0 -276 33.5t-259 115.5q-22 13 -35 13t-44 -23l-21 13l174 266l22 -14q-9 -23 -9 -35q0 -37 76 -85q137 -87 371 -87q171 0 260 59q73 49 73 113q0 55 -63.5 82.5t-228.5 45.5l-197 20
q-198 21 -298 89q-51 34 -80 91.5t-29 124.5q0 128 77 203q28 27 89 63q-77 40 -112 83q-53 66 -53 164q0 168 130.5 263.5t361.5 95.5q107 0 204 -19t231 -66q33 -11 55 -11q12 0 39 25l23 -10l-137 -278l-23 11q6 23 6 33q0 29 -76 62q-74 32 -140.5 44t-169.5 12
q-139 0 -214 -37q-83 -40 -83 -103q0 -45 47.5 -68t168.5 -36l192 -21q226 -24 345 -86q152 -79 152 -261q0 -89 -37 -158t-106 -106zM881 535q96 38 130 67q51 44 51 105q0 59 -50.5 86.5t-186.5 43.5l-263 30q-188 -72 -188 -177q0 -58 65 -84q30 -12 153 -29z" />
    <glyph glyph-name="dieresis" unicode="&#xa8;" 
d="M311 1510q57 0 95 -38q38 -39 38 -95q0 -52 -38 -90t-93 -38q-53 0 -92 38q-38 37 -38 92q0 54 37 91.5t91 39.5zM710 1510q55 0 93 -38q38 -39 38 -90q0 -57 -38 -95t-95 -38q-53 0 -90.5 38.5t-37.5 92.5q0 53 37.5 91t92.5 39z" />
    <glyph glyph-name="copyright" unicode="&#xa9;" horiz-adv-x="1808" 
d="M907 1389q361 0 582 -189q124 -105 186 -257q51 -125 51 -269q0 -195 -111 -365q-122 -188 -339 -271q-162 -62 -367 -62q-359 0 -579 189q-123 106 -186 257q-51 124 -51 261q0 203 110 374q120 185 340 270q154 59 364 62zM907 1271q-319 0 -504 -178
q-170 -163 -170 -411q0 -246 170 -410q185 -178 506 -178q322 0 507 178q170 163 170 402q0 260 -170 419q-101 95 -217 134q-129 43 -292 44zM1240 566l119 -179l-25 -18q-17 18 -26 18t-56 -27q-99 -58 -171 -79.5t-168 -21.5q-194 0 -317 91q-164 121 -164 333t164 333
q123 91 317 91q91 0 161.5 -19.5t157.5 -69.5l20 -11q47 -27 56 -27q8 0 26 17l25 -18l-119 -179l-25 17q2 13 2 20q0 25 -64 61q-103 58 -217 58q-136 0 -216 -67q-95 -79 -95 -206q0 -124 85 -198.5t226 -74.5q114 0 217 58q64 36 64 61q0 7 -2 20z" />
    <glyph glyph-name="ordfeminine" unicode="&#xaa;" horiz-adv-x="1046" 
d="M194 1337l29 18q11 -11 18 -11q4 0 13 4q85 41 228 41q147 0 234.5 -58t87.5 -156v-300q0 -18 9.5 -25.5t38.5 -11.5v-27h-169v63q-42 -45 -82.5 -62t-103.5 -17q-117 0 -208 58q-86 55 -86 146q0 89 86 145q89 58 212 58q61 0 100.5 -15t81.5 -56v52q0 53 -54 85
t-143 32q-64 0 -127.5 -14t-63.5 -29q0 -2 9 -20l-29 -17zM513 1106q-94 0 -149 -38q-42 -29 -42 -74q0 -43 55 -73t134 -30q74 0 123.5 29.5t49.5 73.5q0 49 -46.5 80t-124.5 32zM848 771v-258h-24q-8 37 -19 50.5t-34 13.5h-502q-22 0 -33.5 -13.5t-19.5 -50.5h-23v258h23
q8 -37 19.5 -50.5t33.5 -13.5h502q22 0 34 14t19 50h24z" />
    <glyph glyph-name="guillemotleft" unicode="&#xab;" horiz-adv-x="997" 
d="M847 983l-197 -403l197 -403h-173l-194 403l194 403h173zM490 983l-196 -403l196 -403h-173l-194 403l194 403h173z" />
    <glyph glyph-name="logicalnot" unicode="&#xac;" 
d="M672 0v338h-604v254h887v-592h-283z" />
    <glyph glyph-name="sfthyphen" unicode="&#xad;" horiz-adv-x="455" 
d="M455 733v-346h-32q-10 36 -26 50t-47 14h-246q-30 0 -46.5 -14.5t-25.5 -49.5h-32v346h32q9 -36 25.5 -50.5t46.5 -14.5h246q31 0 47 14t26 51h32z" />
    <glyph glyph-name="registered" unicode="&#xae;" horiz-adv-x="1818" 
d="M907 1389q361 0 582 -189q124 -105 186 -257q51 -125 51 -269q0 -195 -111 -365q-122 -188 -339 -271q-162 -62 -367 -62q-359 0 -579 189q-123 106 -186 257q-51 124 -51 261q0 203 110 374q120 185 340 270q154 59 364 62zM907 1271q-319 0 -504 -178
q-170 -163 -170 -411q0 -246 170 -410q185 -178 506 -178q322 0 507 178q170 163 170 402q0 260 -170 419q-101 95 -217 134q-129 43 -292 44zM710 601v-260q0 -16 8 -24t30 -13v-31h-265v31q22 5 30 13t8 24v683q0 17 -7.5 24.5t-30.5 13.5v31l510 -1q94 0 149 -11t95 -38
q95 -63 95 -198q0 -202 -214 -236l150 -213q42 -59 60.5 -74.5t48.5 -16.5v-32h-305v32q30 3 30 15q0 6 -27 47l-160 234h-205zM710 748h265q95 0 127 17q41 23 41 82q0 58 -41 81q-32 17 -127 17h-265v-197z" />
    <glyph glyph-name="glyph112" unicode="&#xaf;" 
d="M0 1659h1024v-174h-1024v174z" />
    <glyph glyph-name="degree" unicode="&#xb0;" horiz-adv-x="945" 
d="M473 1404q138 0 235 -103q86 -91 86 -223q0 -133 -97 -228q-95 -91 -225 -91q-143 0 -239 105q-83 92 -83 216q0 70 29.5 136t80.5 109q92 77 213 79zM470 1287q-76 0 -133 -55q-66 -63 -66 -151q0 -75 49 -134q59 -71 151 -71q81 0 141.5 60t60.5 140q0 87 -56 146
q-61 64 -147 65z" />
    <glyph glyph-name="plusminus" unicode="&#xb1;" horiz-adv-x="1570" 
d="M687 585h-357q-28 0 -42.5 -14t-24.5 -50h-29v324h30q8 -36 23 -50t43 -14h357v356q0 28 -14 42.5t-50 23.5v30h324v-29q-36 -10 -50 -24.5t-14 -42.5v-356h357q28 0 42.5 14t23.5 50h30v-324h-30q-9 36 -23.5 50t-42.5 14h-357v-289q0 -28 14 -43t50 -24v-29h-324v30
q36 8 50 23t14 43v289zM234 -190v324h30q8 -35 23 -49t43 -14h910q28 0 42.5 13.5t23.5 49.5h30v-324h-30q-9 37 -23.5 51t-42.5 14h-910q-29 0 -43 -14t-24 -51h-29z" />
    <glyph glyph-name="twosuperior" unicode="&#xb2;" horiz-adv-x="969" 
d="M313 705h520q19 0 27 7.5t15 30.5h32v-234h-32q-7 22 -15 29.5t-27 7.5h-680q-32 0 -41.5 -6t-14.5 -31h-33q-1 34 -1 43q0 125 63 207q43 55 100.5 92.5t173.5 86.5l108 45q74 32 106.5 65t32.5 78q0 102 -148 102q-91 0 -171 -41q-73 -38 -73 -77q0 -8 11 -38l-22 -21
l-180 179l24 20q26 -12 37 -12q12 0 45 26q143 115 351 115q152 0 243 -69q92 -70 92 -187q0 -93 -58.5 -160t-184.5 -119l-99 -41q-9 -4 -70 -27q-103 -38 -131 -71z" />
    <glyph glyph-name="threesuperior" unicode="&#xb3;" horiz-adv-x="969" 
d="M771 977q135 -50 135 -179q0 -135 -128 -204q-112 -61 -277 -61q-176 0 -319 64q-59 26 -75 26q-14 0 -42 -24l-29 14l108 229l31 -12q-4 -10 -4 -16q0 -50 101 -90t226 -40q95 0 149.5 30.5t54.5 82.5q0 108 -195 108q-63 0 -84.5 -8t-27.5 -33h-32v211h32
q8 -28 26.5 -35.5t82.5 -7.5q84 0 132 26t48 72q0 47 -47.5 72.5t-136.5 25.5q-97 0 -182.5 -31.5t-85.5 -67.5q0 -11 10 -29l-26 -19l-156 177l25 19q26 -11 36 -11q12 0 31 12q163 101 363 101q140 0 237 -51q120 -63 120 -187q0 -106 -101 -164z" />
    <glyph glyph-name="acute" unicode="&#xb4;" 
d="M778 1533v-27q-39 -1 -59 -27l-142 -174q-6 -7 -6 -16q0 -16 21 -16h4v-27h-217v27q24 0 34 7t19 29l66 163q4 9 4 15q0 16 -28 19v27h304z" />
    <glyph glyph-name="mu" unicode="&#xb5;" horiz-adv-x="984" 
d="M1032 110v-40l-261 -93q-7 -2 -12 -2q-44 0 -72 36q-17 24 -45 108q-58 -63 -88 -87q-76 -63 -171 -63q-85 0 -134 38t-88 133q-1 -24 -1 -31q0 -60 13.5 -121.5t49.5 -167.5q23 -69 23 -110q0 -39 -26 -68q-38 -44 -100 -44q-61 0 -97.5 32t-36.5 86q0 48 18 134
q61 293 64 647v439h269v-588q0 -150 31 -204q13 -21 39 -35.5t53 -14.5q42 0 79 25t85 86v731h267v-666q0 -104 16.5 -137.5t68.5 -33.5q24 0 56 11z" />
    <glyph glyph-name="paragraph" unicode="&#xb6;" horiz-adv-x="1307" 
d="M641 635h-181q-61 0 -136 22t-120 53q-163 113 -163 300q0 114 69 200q48 60 105.5 92.5t138.5 45.5q101 17 123 17h775v-32q-38 -10 -51 -27t-13 -59v-1293q0 -42 13 -59t51 -27v-32h-255v1406h-165v-1406h-255v32q39 10 51.5 27t12.5 59v681z" />
    <glyph glyph-name="cedilla" unicode="&#xb8;" 
d="M378 -224l53 99q12 22 17 25.5t21 3.5q127 0 196 -41t69 -116q0 -72 -59 -118q-63 -49 -183 -49q-118 0 -202 28l23 47q55 -16 102 -16q65 0 103 22.5t38 61.5q0 29 -21 49.5t-51 20.5q-45 0 -76 -35z" />
    <glyph glyph-name="onesuperior" unicode="&#xb9;" horiz-adv-x="969" 
d="M293 1061v228h32l5 -14q6 -21 23 -21q5 0 16 3l50 11v29q0 16 -8.5 24t-32.5 13v31h281v-31q-24 -5 -32.5 -12.5t-8.5 -24.5v-682q0 -17 8.5 -24.5t32.5 -13.5v-31h-281v31q25 6 33 13.5t8 24.5v501l-51 -11q-21 -5 -28.5 -13t-14.5 -31h-32z" />
    <glyph glyph-name="ordmasculine" unicode="&#xba;" horiz-adv-x="1046" 
d="M522 1390q129 0 216 -66q104 -80 104 -223q0 -134 -104 -214q-86 -66 -215 -66q-130 0 -216 66q-104 80 -104 219q0 126 87.5 204t231.5 80zM522 1278q-78 0 -128 -48.5t-50 -123.5q0 -76 50.5 -124.5t128.5 -48.5q77 0 127.5 48.5t50.5 121.5q0 78 -49.5 126t-129.5 49z
M850 771v-258h-24q-8 37 -19 50.5t-34 13.5h-502q-22 0 -33.5 -13.5t-19.5 -50.5h-23v258h23q8 -37 19.5 -50.5t33.5 -13.5h502q22 0 34 14t19 50h24z" />
    <glyph glyph-name="guillemotright" unicode="&#xbb;" horiz-adv-x="997" 
d="M150 983h173l194 -403l-194 -403h-173l196 403zM507 983h172l195 -403l-195 -403h-172l196 403z" />
    <glyph glyph-name="onequarter" unicode="&#xbc;" horiz-adv-x="2526" 
d="M293 1061v228h32l5 -14q6 -21 23 -21q5 0 16 3l50 11v29q0 16 -8.5 24t-32.5 13v31h281v-31q-24 -5 -32.5 -12.5t-8.5 -24.5v-682q0 -17 8.5 -24.5t32.5 -13.5v-31h-281v31q25 6 33 13.5t8 24.5v501l-51 -11q-21 -5 -28.5 -13t-14.5 -31h-32zM1832 1365v-32
q-49 -7 -68 -24.5t-81 -116.5l-618 -1040q-25 -42 -25 -61q0 -24 20.5 -39.5t56.5 -19.5v-32h-420v32q50 8 74.5 31.5t78.5 112.5l609 1016q30 49 30 73t-22 43.5t-55 24.5v32h420zM2171 136h-453q-36 0 -46 -6t-15 -32h-32v180l436 452q27 28 27 38q0 15 -33 19v32h356v-31
q-24 -6 -32.5 -13.5t-8.5 -23.5v-469h42q18 0 26 7.5t15 30.5h32v-222h-32q-7 23 -15 30.5t-26 7.5h-42v-67q0 -17 8.5 -24.5t32.5 -13.5v-31h-281v31q25 6 33 13.5t8 24.5v67zM2171 282v330l-314 -330h314z" />
    <glyph glyph-name="onehalf" unicode="&#xbd;" horiz-adv-x="2527" 
d="M293 1061v228h32l5 -14q7 -21 23 -21q5 0 16 3l50 11v29q0 17 -8.5 24t-32.5 13v31h281v-31q-25 -5 -33 -12.5t-8 -24.5v-682q0 -17 8.5 -24.5t32.5 -13.5v-31h-281v31q25 6 33 13.5t8 24.5v501l-51 -11q-21 -5 -28.5 -12.5t-14.5 -31.5h-32zM1832 1365v-32
q-49 -7 -68 -24.5t-81 -116.5l-618 -1040q-25 -42 -25 -61q0 -24 20.5 -39.5t56.5 -19.5v-32h-420v32q50 8 74.5 31.5t78.5 112.5l609 1016q30 49 30 73t-22 43.5t-55 24.5v32h420zM1870 159h520q19 0 27 7.5t15 29.5h32v-234h-32q-7 23 -15 30.5t-27 7.5h-680
q-32 0 -41.5 -6t-14.5 -32h-33q-1 35 -1 44q0 124 64 206q42 55 99 92.5t174 86.5l108 46q74 31 106.5 64.5t32.5 77.5q0 103 -148 103q-91 0 -170 -41q-74 -38 -74 -78q0 -7 11 -38l-22 -21l-180 179l24 21q27 -12 37 -12q12 0 45 27q143 114 351 114q152 0 243 -69
q92 -70 92 -188q0 -93 -58.5 -160t-184.5 -119l-99 -41q-5 -2 -70 -26q-104 -40 -131 -71z" />
    <glyph glyph-name="threequarters" unicode="&#xbe;" horiz-adv-x="2526" 
d="M771 977q135 -50 135 -179q0 -135 -128 -204q-112 -61 -277 -61q-176 0 -319 64q-59 26 -75 26q-14 0 -42 -24l-29 14l108 229l31 -12q-4 -10 -4 -16q0 -50 101 -90t226 -40q95 0 149.5 30.5t54.5 82.5q0 108 -195 108q-63 0 -84.5 -8t-27.5 -33h-32v211h32
q8 -28 26.5 -35.5t82.5 -7.5q85 0 132.5 26t47.5 72q0 47 -47.5 72.5t-136.5 25.5q-97 0 -182.5 -31.5t-85.5 -67.5q0 -11 10 -29l-26 -19l-156 177l25 19q26 -11 36 -11q12 0 31 12q161 101 363 101q140 0 237 -51q120 -63 120 -187q0 -106 -101 -164zM1832 1365v-32
q-50 -7 -68 -24.5t-81 -116.5l-618 -1040q-25 -42 -25 -61q0 -24 20.5 -39.5t56.5 -19.5v-32h-420v32q50 9 74.5 32t78.5 112l609 1016q30 49 30 73t-22 43.5t-55 24.5v32h420zM2171 136h-453q-36 0 -46 -6t-15 -32h-32v180l436 452q27 28 27 38q0 15 -33 19v32h356v-31
q-24 -6 -32.5 -13.5t-8.5 -23.5v-469h42q18 0 26 7.5t15 30.5h32v-222h-32q-7 23 -15 30.5t-26 7.5h-42v-67q0 -17 8 -24.5t33 -13.5v-31h-281v31q25 6 33 13.5t8 24.5v67zM2171 282v330l-314 -330h314z" />
    <glyph glyph-name="questiondown" unicode="&#xbf;" horiz-adv-x="1000" 
d="M787 385l172 -252l-26 -18l-8 4q-22 11 -34 11q-23 0 -86 -41q-94 -62 -167.5 -87.5t-158.5 -25.5q-138 0 -231 65q-125 87 -125 238q0 79 40 151t138 168q68 67 88.5 105.5t20.5 99.5q0 26 -12 38.5t-46 21.5v32h329v-32q-40 -13 -53 -33.5t-24 -91.5
q-11 -64 -30.5 -101.5t-81.5 -115.5q-56 -70 -75.5 -108.5t-19.5 -80.5q0 -65 42.5 -104.5t113.5 -39.5q106 0 181 76q35 36 35 69q0 11 -9 34zM500 1389q68 0 116 -48.5t48 -116.5q0 -67 -48 -115t-116 -48q-69 0 -116.5 48t-47.5 117q0 67 48 114.5t116 48.5z" />
    <glyph glyph-name="Agrave" unicode="&#xc0;" horiz-adv-x="1666" 
d="M1123 348h-620l-92 -192q-19 -40 -19 -63q0 -44 67 -61v-32h-452v32q40 8 61 28t48 78l502 1049q24 50 24 80q0 46 -58 66v32h484v-32q-59 -17 -59 -59q0 -29 19 -66l520 -1052q33 -67 58 -91.5t67 -32.5v-32h-502v32q66 11 66 62q0 21 -20 62zM1037 535l-221 486
l-224 -486h445zM543 1765h304v-27q-28 -3 -28 -19q0 -6 4 -15l66 -163q9 -22 19 -29t34 -7v-27h-217v27h5q20 0 20 16q0 9 -6 16l-142 173q-20 27 -59 28v27z" />
    <glyph glyph-name="Aacute" unicode="&#xc1;" horiz-adv-x="1666" 
d="M1123 348h-620l-92 -192q-19 -40 -19 -63q0 -44 67 -61v-32h-452v32q40 8 61 28t48 78l502 1049q24 50 24 80q0 46 -58 66v32h484v-32q-59 -17 -59 -59q0 -29 19 -66l520 -1052q33 -67 58 -91.5t67 -32.5v-32h-502v32q66 11 66 62q0 21 -20 62zM1037 535l-221 486
l-224 -486h445zM1108 1765v-27q-39 -1 -59 -28l-142 -173q-6 -7 -6 -16q0 -16 21 -16h4v-27h-217v27q24 0 34 7t19 29l66 163q4 9 4 15q0 16 -28 19v27h304z" />
    <glyph glyph-name="Acircumflex" unicode="&#xc2;" horiz-adv-x="1666" 
d="M1123 348h-620l-92 -192q-19 -40 -19 -63q0 -44 67 -61v-32h-452v32q40 8 61 28t48 78l502 1049q24 50 24 80q0 46 -58 66v32h484v-32q-59 -17 -59 -59q0 -29 19 -66l520 -1052q33 -67 58 -91.5t67 -32.5v-32h-502v32q66 11 66 62q0 21 -20 62zM1037 535l-221 486
l-224 -486h445zM737 1478h-250v27q24 1 31 5.5t38 36.5l134 149q11 12 11 25q0 17 -33 17v27h316v-27q-30 -3 -30 -18q0 -11 16 -28l150 -167q16 -19 45 -20v-27h-287v27q31 2 31 15q0 4 -16 23l-84 103l-92 -106q-9 -9 -9 -18q0 -15 29 -17v-27z" />
    <glyph glyph-name="Atilde" unicode="&#xc3;" horiz-adv-x="1666" 
d="M1123 348h-620l-92 -192q-19 -40 -19 -63q0 -44 67 -61v-32h-452v32q40 8 61 28t48 78l502 1049q24 50 24 80q0 46 -58 66v32h484v-32q-59 -17 -59 -59q0 -29 19 -66l520 -1052q33 -67 58 -91.5t67 -32.5v-32h-502v32q66 11 66 62q0 21 -20 62zM1037 535l-221 486
l-224 -486h445zM1042 1749l145 -134l-16 -20q-29 9 -37 9q-13 0 -26 -17q-67 -91 -142 -91q-40 0 -85 17l-148 57q-22 8 -44 8q-20 0 -39 -16.5t-19 -33.5q0 -12 15 -31l-18 -14l-149 138l14 17q24 -8 34 -8q21 0 38 23q61 80 152 80q31 0 65 -13l149 -59q26 -10 51 -10
q20 0 38 16t18 34q0 13 -17 33z" />
    <glyph glyph-name="Adieresis" unicode="&#xc4;" horiz-adv-x="1666" 
d="M1123 348h-620l-92 -192q-19 -40 -19 -63q0 -44 67 -61v-32h-452v32q41 8 61 27t48 79l502 1049q24 50 24 80q0 46 -58 66v32h484v-32q-59 -17 -59 -59q0 -29 19 -66l520 -1052q33 -67 58 -91.5t67 -32.5v-32h-502v32q66 11 66 62q0 21 -20 62zM1037 535l-221 486
l-224 -486h445zM625 1742q58 0 95 -38q38 -39 38 -96q0 -51 -38 -89t-93 -38q-53 0 -92 38q-38 37 -38 92q0 54 37 91.5t91 39.5zM1024 1742q55 0 93 -38q38 -39 38 -90q0 -57 -38 -95t-96 -38q-52 0 -89.5 38.5t-37.5 92.5t37.5 91.5t92.5 38.5z" />
    <glyph glyph-name="Aring" unicode="&#xc5;" horiz-adv-x="1666" 
d="M1123 348h-620l-92 -192q-19 -40 -19 -63q0 -44 67 -61v-32h-452v32q40 8 61 28t48 78l502 1049q24 50 24 80q0 46 -58 66v32h484v-32q-59 -17 -59 -59q0 -29 19 -66l520 -1052q33 -67 58 -91.5t67 -32.5v-32h-502v32q66 11 66 62q0 21 -20 62zM1037 535l-221 486
l-224 -486h445zM826 1813q97 0 163 -55q67 -56 67 -134q0 -80 -67 -133q-69 -54 -162 -54q-95 0 -162 55q-67 56 -67 134q0 79 65.5 132.5t162.5 54.5zM827 1709q-44 0 -72.5 -23.5t-28.5 -60.5q0 -35 29.5 -59.5t71.5 -24.5q41 0 71 24.5t30 58.5q0 37 -28 61t-73 24z" />
    <glyph glyph-name="AE" unicode="&#xc6;" horiz-adv-x="2381" 
d="M1013 348h-489l-112 -192q-26 -44 -26 -68q0 -40 60 -56v-32h-472v32q42 9 64 28t56 78l604 1049q33 56 33 85q0 42 -60 61v32h1493q31 0 47 14.5t26 50.5h32v-353h-32q-10 35 -26 49t-47 14h-853v-324h553q30 0 46 14t26 50h32v-345h-32q-10 36 -26 50t-46 14h-553v-374
h877q31 0 47 14t26 50h32v-353h-32q-10 36 -26 50t-47 14h-1239v32q36 10 50 26t14 47v243zM1013 535v605h-43l-338 -605h381z" />
    <glyph glyph-name="Ccedilla" unicode="&#xc7;" horiz-adv-x="1718" 
d="M1446 469l190 -285l-26 -18q-28 26 -46 26t-101 -48q-172 -99 -289.5 -133.5t-279.5 -34.5q-323 0 -530 153q-122 89 -192 221q-81 151 -81 333q0 248 145 431q218 275 659 275q162 0 278 -34t290 -134q83 -47 101 -47t46 26l26 -18l-190 -285l-27 18q2 16 2 27
q0 29 -25 54.5t-89 61.5q-177 100 -375 100q-234 0 -373 -117q-164 -137 -164 -358t164 -358q139 -117 373 -117q198 0 375 100q64 36 89 61.5t25 54.5q0 11 -2 26zM712 -246l57 110q13 25 18.5 29t22.5 4q137 0 212 -46t75 -130q0 -80 -64 -132q-68 -55 -196 -55
q-132 0 -220 31l25 52q60 -16 112 -16q69 0 110 25t41 68q0 32 -23 55t-55 23q-48 0 -83 -39z" />
    <glyph glyph-name="Egrave" unicode="&#xc8;" horiz-adv-x="1556" 
d="M485 599v-374h878q30 0 46 14t26 50h32v-353h-32q-10 36 -26 50t-46 14h-1240v32q36 10 50 26t14 47v1155q0 31 -14 47t-50 26v32h1216q30 0 46 14.5t26 50.5h32v-353h-32q-10 35 -26 49t-46 14h-854v-324h554q30 0 46 14t26 50h32v-345h-32q-10 35 -26 49.5t-46 14.5
h-554zM534 1765h304v-27q-28 -3 -28 -19q0 -6 4 -15l66 -163q9 -22 19 -29t34 -7v-27h-217v27h5q20 0 20 16q0 9 -6 16l-142 173q-20 27 -59 28v27z" />
    <glyph glyph-name="Eacute" unicode="&#xc9;" horiz-adv-x="1556" 
d="M485 599v-374h878q30 0 46 14t26 50h32v-353h-32q-10 36 -26 50t-46 14h-1240v32q36 10 50 26t14 47v1155q0 31 -14 47t-50 26v32h1216q30 0 46 14.5t26 50.5h32v-353h-32q-10 35 -26 49t-46 14h-854v-324h554q30 0 46 14t26 50h32v-345h-32q-10 35 -26 49.5t-46 14.5
h-554zM1070 1765v-27q-39 -1 -59 -28l-142 -173q-6 -7 -6 -16q0 -16 21 -16h4v-27h-217v27q24 0 34 7t19 29l66 163q4 9 4 15q0 16 -28 19v27h304z" />
    <glyph glyph-name="Ecircumflex" unicode="&#xca;" horiz-adv-x="1556" 
d="M485 599v-374h878q30 0 46 14t26 50h32v-353h-32q-10 36 -26 50t-46 14h-1240v32q36 10 50 26t14 47v1155q0 31 -14 47t-50 26v32h1216q30 0 46 14.5t26 50.5h32v-353h-32q-10 35 -26 49t-46 14h-854v-324h554q30 0 46 14t26 50h32v-345h-32q-10 35 -26 49.5t-46 14.5
h-554zM713 1478h-250v27q24 1 31 5.5t38 36.5l134 149q11 12 11 25q0 17 -33 17v27h316v-27q-30 -3 -30 -18q0 -11 16 -28l150 -167q16 -19 45 -20v-27h-287v27q31 2 31 15q0 4 -16 23l-84 103l-92 -106q-9 -9 -9 -18q0 -15 29 -17v-27z" />
    <glyph glyph-name="Edieresis" unicode="&#xcb;" horiz-adv-x="1556" 
d="M485 599v-374h878q30 0 46 14t26 50h32v-353h-32q-10 36 -26 50t-46 14h-1240v32q36 10 50 26t14 47v1155q0 31 -14 47t-50 26v32h1216q30 0 46 14.5t26 50.5h32v-353h-32q-10 35 -26 49t-46 14h-854v-324h554q30 0 46 14t26 50h32v-345h-32q-10 35 -26 49.5t-46 14.5
h-554zM601 1742q57 0 95 -38q38 -39 38 -96q0 -51 -38 -89t-93 -38q-53 0 -92 38q-38 37 -38 92q0 54 37 91.5t91 39.5zM1000 1742q55 0 93 -38q38 -39 38 -90q0 -57 -38 -95t-95 -38q-53 0 -90.5 38.5t-37.5 92.5q0 53 37.5 91t92.5 39z" />
    <glyph glyph-name="Igrave" unicode="&#xcc;" horiz-adv-x="672" 
d="M187 105v1156q0 30 -14 46t-50 26v32h426v-32q-36 -9 -50 -25.5t-14 -46.5v-1156q0 -31 14.5 -47.5t49.5 -25.5v-32h-426v32q36 10 50 26t14 47zM52 1765h304v-27q-28 -3 -28 -19q0 -6 4 -15l66 -163q9 -22 19 -29t34 -7v-27h-217v27h5q20 0 20 16q0 9 -6 16l-142 173
q-20 27 -59 28v27z" />
    <glyph glyph-name="Iacute" unicode="&#xcd;" horiz-adv-x="672" 
d="M187 105v1156q0 30 -14 46t-50 26v32h426v-32q-36 -9 -50 -25.5t-14 -46.5v-1156q0 -31 14.5 -47.5t49.5 -25.5v-32h-426v32q36 10 50 26t14 47zM619 1765v-27q-39 -1 -59 -28l-142 -173q-6 -7 -6 -16q0 -16 21 -16h4v-27h-217v27q24 0 34 7t19 29l66 163q4 9 4 15
q0 16 -28 19v27h304z" />
    <glyph glyph-name="Icircumflex" unicode="&#xce;" horiz-adv-x="671" 
d="M187 105v1156q0 30 -14 46t-50 26v32h426v-32q-36 -9 -50 -25.5t-14 -46.5v-1156q0 -31 14.5 -47.5t49.5 -25.5v-32h-426v32q36 10 50 26t14 47zM253 1478h-250v27q24 1 31 5.5t38 36.5l134 149q11 12 11 25q0 17 -33 17v27h316v-27q-30 -3 -30 -18q0 -11 16 -28
l150 -167q16 -19 45 -20v-27h-287v27q31 2 31 15q0 4 -16 23l-84 103l-92 -106q-9 -9 -9 -18q0 -15 29 -17v-27z" />
    <glyph glyph-name="Idieresis" unicode="&#xcf;" horiz-adv-x="671" 
d="M187 105v1156q0 30 -14 46t-50 26v32h426v-32q-36 -9 -50 -25.5t-14 -46.5v-1156q0 -31 14.5 -47.5t49.5 -25.5v-32h-426v32q36 10 50 26t14 47zM169 1742q57 0 95 -38q38 -39 38 -96q0 -51 -38 -89t-93 -38q-53 0 -92 38q-38 37 -38 92q0 54 37 91.5t91 39.5zM500 1742
q55 0 93 -38q38 -39 38 -90q0 -57 -38 -95t-96 -38q-52 0 -89.5 38.5t-37.5 92.5q0 53 37.5 91t92.5 39z" />
    <glyph glyph-name="Eth" unicode="&#xd0;" horiz-adv-x="1717" 
d="M188 608h-66q-31 0 -46.5 -14t-26.5 -51h-32v327h32q11 -37 26.5 -50.5t46.5 -13.5h66v454q0 31 -14 47t-50 26v32h760q251 0 385 -57q192 -83 285 -274q72 -150 72 -351q0 -354 -217 -538q-91 -78 -213 -111.5t-312 -33.5h-760v32q36 10 50 26t14 47v503zM486 806h305
q30 0 46 14.5t26 49.5h32v-327h-32q-10 36 -26 50.5t-46 14.5h-305v-383h373q180 0 270 49q193 105 193 409q0 220 -104 337q-58 65 -140.5 92.5t-218.5 27.5h-373v-334z" />
    <glyph glyph-name="Ntilde" unicode="&#xd1;" horiz-adv-x="1785" 
d="M460 935v-830q0 -31 14 -47t50 -26v-32h-401v32q36 10 50 26t14 47v1156q0 30 -14 46t-50 26v32h464v-32q-43 -11 -43 -46q0 -24 28 -53l753 -783v810q0 30 -14 46t-50 26v32h401v-32q-36 -10 -50 -26t-14 -46v-1156q0 -31 14 -47t50 -26v-32h-430v32q42 9 42 43
q0 20 -49 70zM1115 1749l145 -134l-16 -20q-29 9 -37 9q-13 0 -26 -17q-67 -91 -142 -91q-40 0 -85 17l-148 57q-22 8 -44 8q-20 0 -39 -16.5t-19 -33.5q0 -12 15 -31l-18 -14l-149 138l14 17q24 -8 34 -8q21 0 38 23q61 80 152 80q31 0 65 -13l149 -59q26 -10 51 -10
q20 0 38 16t18 34q0 13 -17 33z" />
    <glyph glyph-name="Ograve" unicode="&#xd2;" horiz-adv-x="1752" 
d="M873 1389q357 0 566 -193q221 -202 221 -522q0 -196 -106 -366q-207 -332 -679 -332q-354 0 -563 193q-112 103 -170 247q-51 127 -51 267q0 205 105 375q201 325 677 331zM874 1158q-195 0 -325 -116q-154 -137 -154 -359t154 -359q130 -116 327 -116t326 116
q77 69 118 169q36 89 36 184q0 232 -154 365q-131 114 -328 116zM608 1765h304v-27q-28 -3 -28 -19q0 -6 4 -15l66 -163q9 -22 19 -29t34 -7v-27h-217v27h5q20 0 20 16q0 9 -6 16l-142 173q-20 27 -59 28v27z" />
    <glyph glyph-name="Oacute" unicode="&#xd3;" horiz-adv-x="1752" 
d="M873 1389q357 0 566 -193q221 -202 221 -522q0 -196 -106 -366q-207 -332 -679 -332q-354 0 -563 193q-112 103 -170 247q-51 127 -51 267q0 205 105 375q201 325 677 331zM874 1158q-195 0 -325 -116q-154 -137 -154 -359t154 -359q130 -116 327 -116t326 116
q77 69 118 169q36 89 36 184q0 232 -154 365q-131 114 -328 116zM1150 1765v-27q-39 -1 -59 -28l-142 -173q-6 -7 -6 -16q0 -16 21 -16h4v-27h-217v27q24 0 34 7t19 29l66 163q4 9 4 15q0 16 -28 19v27h304z" />
    <glyph glyph-name="Ocircumflex" unicode="&#xd4;" horiz-adv-x="1752" 
d="M873 1389q357 0 566 -193q221 -202 221 -522q0 -196 -106 -366q-207 -332 -679 -332q-354 0 -563 193q-112 103 -170 247q-51 127 -51 267q0 205 105 375q201 325 677 331zM874 1158q-195 0 -325 -116q-154 -137 -154 -359t154 -359q130 -116 327 -116t326 116
q77 69 118 169q36 89 36 184q0 232 -154 365q-131 114 -328 116zM787 1478h-250v27q24 1 31 5.5t38 36.5l134 149q11 12 11 25q0 17 -33 17v27h316v-27q-30 -3 -30 -18q0 -11 16 -28l150 -167q16 -19 45 -20v-27h-287v27q31 2 31 15q0 4 -16 23l-84 103l-92 -106
q-9 -9 -9 -18q0 -15 29 -17v-27z" />
    <glyph glyph-name="Otilde" unicode="&#xd5;" horiz-adv-x="1752" 
d="M873 1389q357 0 566 -193q221 -202 221 -522q0 -196 -106 -366q-207 -332 -679 -332q-354 0 -563 193q-112 103 -170 247q-51 127 -51 267q0 205 105 375q201 325 677 331zM874 1158q-195 0 -325 -116q-154 -137 -154 -359t154 -359q130 -116 327 -116t326 116
q77 69 118 169q36 89 36 184q0 232 -154 365q-131 114 -328 116zM1099 1749l145 -134l-16 -20q-29 9 -37 9q-13 0 -26 -17q-67 -91 -142 -91q-40 0 -85 17l-148 57q-22 8 -44 8q-20 0 -39 -16.5t-19 -33.5q0 -12 15 -31l-18 -14l-149 138l14 17q24 -8 34 -8q21 0 38 23
q61 80 152 80q31 0 65 -13l149 -59q26 -10 51 -10q20 0 38 16t18 34q0 13 -17 33z" />
    <glyph glyph-name="Odieresis" unicode="&#xd6;" horiz-adv-x="1752" 
d="M873 1389q357 0 566 -193q221 -202 221 -522q0 -196 -106 -366q-207 -332 -679 -332q-354 0 -563 193q-112 103 -170 247q-51 127 -51 267q0 205 105 375q201 325 677 331zM874 1158q-195 0 -325 -116q-154 -137 -154 -359t154 -359q130 -116 327 -116t326 116
q77 69 118 169q36 89 36 184q0 232 -154 365q-131 114 -328 116zM675 1742q57 0 95 -38q38 -39 38 -96q0 -51 -38 -89t-93 -38q-53 0 -92 38q-38 37 -38 92q0 54 37 91.5t91 39.5zM1074 1742q55 0 93 -38q38 -39 38 -90q0 -57 -38 -95t-96 -38q-52 0 -89.5 38.5t-37.5 92.5
q0 53 37.5 91t92.5 39z" />
    <glyph glyph-name="multiply" unicode="&#xd7;" horiz-adv-x="1570" 
d="M785 544l-276 -276q-21 -21 -21 -43q0 -18 19 -50l-21 -21l-229 230l21 21q31 -19 50 -19q22 0 42 20l277 277l-277 276q-20 20 -42 20q-19 0 -50 -18l-21 21l229 229l21 -21q-19 -32 -19 -50q0 -22 21 -42l276 -277l276 276q21 21 21 43q0 18 -19 50l21 21l229 -229
l-20 -21q-32 19 -51 19q-21 0 -42 -21l-276 -276l276 -277q21 -20 42 -20q18 0 51 19l20 -21l-229 -230l-21 21q19 31 19 50q0 22 -21 43z" />
    <glyph glyph-name="Oslash" unicode="&#xd8;" horiz-adv-x="1752" 
d="M1244 1502h400v-39q-49 -7 -78 -32.5t-113 -136.5l-50 -66q257 -214 257 -545q0 -205 -106 -374q-207 -333 -678 -333q-112 0 -191.5 14.5t-178.5 51.5l-34 -45q-25 -34 -25 -53q0 -41 61 -42v-39h-401v39q52 11 90 43.5t111 129.5l45 59q-262 217 -262 549
q0 205 106 374q206 332 679 332q113 0 193 -14.5t181 -53.5l33 43q19 25 19 47q0 45 -58 52v39zM664 250q102 -42 210 -42q199 0 328 116q154 137 154 359q0 181 -120 325zM1093 1114q-106 43 -216 43q-199 0 -328 -115q-154 -138 -154 -358q0 -188 124 -330z" />
    <glyph glyph-name="Ugrave" unicode="&#xd9;" horiz-adv-x="1671" 
d="M1512 1260v-765q0 -217 -80 -325q-144 -194 -595 -194q-326 0 -499 105q-101 61 -140 166q-38 104 -38 248v765q0 31 -14 47t-50 26v32h427v-32q-36 -9 -50.5 -25.5t-14.5 -47.5v-681q0 -118 13 -174.5t49 -94.5q96 -102 328 -102q233 0 329 102q35 38 48 94.5t13 174.5
v681q0 31 -14 47t-50 26v32h402v-32q-36 -10 -50 -26t-14 -47zM575 1765h304v-27q-28 -3 -28 -19q0 -6 4 -15l66 -163q9 -22 19 -29t34 -7v-27h-217v27h5q20 0 20 16q0 9 -6 16l-142 173q-20 27 -59 28v27z" />
    <glyph glyph-name="Uacute" unicode="&#xda;" horiz-adv-x="1671" 
d="M1512 1260v-765q0 -217 -80 -325q-144 -194 -595 -194q-326 0 -499 105q-101 61 -140 166q-38 104 -38 248v765q0 31 -14 47t-50 26v32h427v-32q-36 -9 -50.5 -25.5t-14.5 -47.5v-681q0 -118 13 -174.5t49 -94.5q96 -102 328 -102q233 0 329 102q35 38 48 94.5t13 174.5
v681q0 31 -14 47t-50 26v32h402v-32q-36 -10 -50 -26t-14 -47zM1110 1765v-27q-39 -1 -59 -28l-142 -173q-6 -7 -6 -16q0 -16 21 -16h4v-27h-217v27q24 0 34 7t19 29l66 163q4 9 4 15q0 16 -28 19v27h304z" />
    <glyph glyph-name="Ucircumflex" unicode="&#xdb;" horiz-adv-x="1671" 
d="M1512 1260v-765q0 -217 -80 -325q-144 -194 -595 -194q-326 0 -499 105q-101 61 -140 166q-38 104 -38 248v765q0 31 -14 47t-50 26v32h427v-32q-36 -9 -50.5 -25.5t-14.5 -47.5v-681q0 -118 13 -174.5t49 -94.5q96 -102 328 -102q233 0 329 102q35 38 48 94.5t13 174.5
v681q0 31 -14 47t-50 26v32h402v-32q-36 -10 -50 -26t-14 -47zM754 1478h-250v27q24 1 31 5.5t38 36.5l134 149q11 12 11 25q0 17 -33 17v27h316v-27q-30 -3 -30 -18q0 -11 16 -28l150 -167q16 -19 45 -20v-27h-287v27q31 2 31 15q0 4 -16 23l-84 103l-92 -106q-9 -9 -9 -18
q0 -15 29 -17v-27z" />
    <glyph glyph-name="Udieresis" unicode="&#xdc;" horiz-adv-x="1671" 
d="M1512 1260v-765q0 -217 -80 -325q-144 -194 -595 -194q-326 0 -499 105q-101 61 -140 166q-38 104 -38 248v765q0 31 -14 47t-50 26v32h427v-32q-36 -9 -50.5 -25.5t-14.5 -47.5v-681q0 -118 13 -174.5t49 -94.5q96 -102 328 -102q233 0 329 102q35 38 48 94.5t13 174.5
v681q0 31 -14 47t-50 26v32h402v-32q-36 -10 -50 -26t-14 -47zM642 1742q58 0 95 -38q38 -39 38 -96q0 -51 -38 -89t-93 -38q-53 0 -92 38q-38 37 -38 92q0 54 37 91.5t91 39.5zM1041 1742q55 0 93 -38q38 -39 38 -90q0 -57 -38 -95t-96 -38q-52 0 -89.5 38.5t-37.5 92.5
q0 53 37.5 91t92.5 39z" />
    <glyph glyph-name="Yacute" unicode="&#xdd;" horiz-adv-x="1460" 
d="M879 571v-466q0 -31 14.5 -47t50.5 -26v-32h-429v32q36 10 51 26t15 47v466l-441 621q-57 80 -89.5 107.5t-77.5 33.5v32h539v-32q-67 -11 -67 -62q0 -18 41 -79l246 -366l253 366q41 59 41 80q0 23 -18 39.5t-49 21.5v32h528v-32q-45 -6 -77.5 -33.5t-89.5 -107.5z
M998 1765v-27q-39 -1 -59 -28l-142 -173q-6 -7 -6 -16q0 -16 21 -16h4v-27h-217v27q24 0 34 7t19 29l66 163q4 9 4 15q0 16 -28 19v27h304z" />
    <glyph glyph-name="Thorn" unicode="&#xde;" horiz-adv-x="1465" 
d="M485 1161h388q149 0 236.5 -20t153.5 -69q70 -51 108 -135q39 -85 39 -182q0 -139 -74 -242q-63 -89 -169 -126.5t-294 -37.5h-388v-244q0 -31 14.5 -47.5t49.5 -25.5v-32h-426v32q36 10 50 26t14 47v1156q0 30 -14 46t-50 26v32h426v-32q-36 -9 -50 -25.5t-14 -46.5
v-100zM485 574h360q135 0 189 29q36 19 57 60.5t21 91.5t-21 91.5t-57 60.5q-53 29 -189 29h-360v-362z" />
    <glyph glyph-name="germandbls" unicode="&#xdf;" horiz-adv-x="2522" 
d="M1175 1019l-135 -261l-24 13q0 33 -21 52q-57 51 -168 84t-225 33q-97 0 -172 -27q-108 -39 -108 -113q0 -49 52 -69.5t201 -32.5l158 -12q207 -16 315 -80q60 -36 99 -96q49 -75 49 -169q0 -171 -154 -270q-147 -95 -398 -95q-253 0 -489 107q-16 7 -27 7q-20 0 -37 -24
l-25 10l115 274l25 -10v-8q0 -26 20 -44q50 -44 173 -76.5t243 -32.5q106 0 190 28q104 34 104 110q0 61 -72 85q-48 16 -173 27l-157 13q-127 10 -194 26t-117 47q-64 40 -100 109t-36 151q0 184 158 281q144 88 356 88q115 0 214.5 -25.5t237.5 -89.5q41 -19 57 -19t41 22
zM2437 1019l-136 -261l-24 13q1 7 1 11q0 27 -40 56q-67 47 -168 74.5t-207 27.5q-97 0 -172 -27q-108 -39 -108 -113q0 -49 52 -69.5t202 -32.5l157 -12q207 -16 316 -80q59 -36 98 -96q49 -75 49 -169q0 -171 -153 -270q-148 -95 -398 -95q-254 0 -489 107q-17 7 -28 7
q-20 0 -37 -24l-25 10l115 274l26 -10q-1 -6 -1 -8q0 -26 20 -44q50 -44 173 -76.5t243 -32.5q106 0 190 28q104 34 104 110q0 61 -72 85q-48 16 -173 27l-157 13q-127 10 -194 26t-117 47q-64 40 -100 109t-36 151q0 184 158 281q144 88 356 88q115 0 214.5 -25.5
t237.5 -89.5q41 -19 57 -19t41 22z" />
    <glyph glyph-name="agrave" unicode="&#xe0;" horiz-adv-x="1421" 
d="M947 280h-515l-58 -122q-21 -44 -21 -69q0 -48 64 -61v-28h-412v28q38 6 56.5 23t43.5 67l409 828q23 47 23 82q0 41 -56 64v28h435v-28q-55 -22 -55 -68q0 -33 25 -81l424 -803q35 -66 55 -85.5t61 -27.5v-27h-457v27q65 11 65 61q0 31 -25 77zM866 437l-183 359
l-174 -359h357zM413 1533h304v-27q-28 -3 -28 -19q0 -6 4 -15l66 -163q9 -22 19 -29t34 -7v-27h-217v27h5q20 0 20 16q0 9 -6 16l-142 174q-20 26 -59 27v27z" />
    <glyph glyph-name="aacute" unicode="&#xe1;" horiz-adv-x="1421" 
d="M947 280h-515l-58 -122q-21 -44 -21 -69q0 -48 64 -61v-28h-412v28q38 6 56.5 23t43.5 67l409 828q23 47 23 82q0 41 -56 64v28h435v-28q-55 -22 -55 -68q0 -33 25 -81l424 -803q35 -66 55 -85.5t61 -27.5v-27h-457v27q65 11 65 61q0 31 -25 77zM866 437l-183 359
l-174 -359h357zM980 1533v-27q-39 -1 -59 -27l-142 -174q-6 -7 -6 -16q0 -16 21 -16h4v-27h-217v27q24 0 34 7t19 29l66 163q4 9 4 15q0 16 -28 19v27h304z" />
    <glyph glyph-name="acircumflex" unicode="&#xe2;" horiz-adv-x="1421" 
d="M947 280h-515l-58 -122q-21 -44 -21 -69q0 -48 64 -61v-28h-412v28q38 6 56.5 23t43.5 67l409 828q23 47 23 82q0 41 -56 64v28h435v-28q-55 -22 -55 -68q0 -33 25 -81l424 -803q35 -66 55 -85.5t61 -27.5v-27h-457v27q65 11 65 61q0 31 -25 77zM866 437l-183 359
l-174 -359h357zM609 1246h-250v27q24 1 31 5.5t38 36.5l134 149q11 12 11 25q0 17 -33 17v27h316v-27q-30 -3 -30 -18q0 -11 16 -28l150 -167q16 -19 45 -20v-27h-287v27q31 3 31 15q0 4 -16 23l-84 103l-92 -106q-9 -9 -9 -18q0 -15 29 -17v-27z" />
    <glyph glyph-name="atilde" unicode="&#xe3;" horiz-adv-x="1421" 
d="M947 280h-515l-58 -122q-21 -44 -21 -69q0 -48 64 -61v-28h-412v28q38 6 56.5 23t43.5 67l409 828q23 47 23 82q0 41 -56 64v28h435v-28q-55 -22 -55 -68q0 -33 25 -81l424 -803q35 -66 55 -85.5t61 -27.5v-27h-457v27q65 11 65 61q0 31 -25 77zM866 437l-183 359
l-174 -359h357zM918 1517l145 -134l-16 -20q-29 9 -37 9q-13 0 -26 -17q-67 -92 -142 -92q-39 0 -85 18l-148 57q-20 7 -44 7q-20 0 -39 -16.5t-19 -33.5q0 -12 15 -30l-18 -15l-149 139l14 17q23 -8 34 -8q21 0 38 22q62 80 152 80q33 0 65 -13l149 -58q28 -11 51 -11
q20 0 38 16t18 34q0 14 -17 33z" />
    <glyph glyph-name="adieresis" unicode="&#xe4;" horiz-adv-x="1421" 
d="M947 280h-515l-58 -122q-21 -44 -21 -69q0 -48 64 -61v-28h-412v28q38 6 56.5 23t43.5 67l409 828q23 47 23 82q0 41 -56 64v28h435v-28q-55 -22 -55 -68q0 -33 25 -81l424 -803q35 -66 55 -85.5t61 -27.5v-27h-457v27q65 11 65 61q0 31 -25 77zM866 437l-183 359
l-174 -359h357zM501 1510q57 0 95 -38q38 -39 38 -95q0 -52 -38 -90t-93 -38q-53 0 -92 38q-38 37 -38 92q0 54 37 91.5t91 39.5zM900 1510q55 0 93 -38q38 -39 38 -90q0 -57 -38 -95t-95 -38q-53 0 -90.5 38.5t-37.5 92.5q0 53 37.5 91t92.5 39z" />
    <glyph glyph-name="aring" unicode="&#xe5;" horiz-adv-x="1421" 
d="M947 280h-515l-58 -122q-21 -44 -21 -69q0 -48 64 -61v-28h-412v28q38 6 56.5 23t43.5 67l409 828q23 47 23 82q0 41 -56 64v28h435v-28q-55 -22 -55 -68q0 -33 25 -81l424 -803q35 -66 55 -85.5t61 -27.5v-27h-457v27q65 11 65 61q0 31 -25 77zM866 437l-183 359
l-174 -359h357zM701 1581q97 0 163 -55q67 -56 67 -134q0 -80 -67 -133q-69 -54 -162 -54q-95 0 -162 55q-67 56 -67 134q0 79 65.5 132.5t162.5 54.5zM702 1477q-44 0 -72.5 -23.5t-28.5 -60.5q0 -35 29.5 -59.5t71.5 -24.5q41 0 71 24.5t30 58.5q0 37 -28 61t-73 24z" />
    <glyph glyph-name="ae" unicode="&#xe6;" horiz-adv-x="2090" 
d="M953 280h-406l-77 -127q-28 -46 -28 -69q0 -44 57 -57v-27h-441v27q40 7 61 24t51 67l501 825q36 60 36 91q0 34 -56 58v28h1250q32 0 48.5 14t26.5 50h27v-332h-28q-9 36 -25.5 50.5t-48.5 14.5h-680v-246h421q31 0 48.5 14.5t26.5 49.5h27v-324h-27q-10 36 -26.5 50.5
t-48.5 14.5h-421v-273h711q31 0 47.5 14.5t26.5 50.5h27v-332h-27q-10 35 -26.5 49.5t-47.5 14.5h-1043v28q62 14 64 74v178zM953 437v480h-33l-276 -480h309z" />
    <glyph glyph-name="ccedilla" unicode="&#xe7;" horiz-adv-x="1427" 
d="M1193 401l169 -246l-23 -17q-24 17 -38 17q-17 0 -79 -37q-137 -80 -242 -111t-242 -31q-274 0 -447 131q-98 75 -156 188q-62 122 -62 265q0 197 114 348q179 236 549 236q137 0 243.5 -31t242.5 -111q62 -37 79 -37q14 0 38 17l23 -18l-169 -245l-22 16q1 12 2 15
q1 9 1 13q0 49 -135 111q-128 59 -258 59q-182 0 -300 -96q-135 -108 -135 -277q0 -170 135 -278q119 -95 300 -95q142 0 283 71q110 56 110 98q0 2 -3 28zM570 -224l53 99q12 22 17 25.5t21 3.5q127 0 196 -41t69 -116q0 -72 -59 -118q-63 -49 -183 -49q-118 0 -202 28
l23 47q55 -16 102 -16q65 0 103 22.5t38 61.5q0 29 -21 49.5t-51 20.5q-45 0 -76 -35z" />
    <glyph glyph-name="egrave" unicode="&#xe8;" horiz-adv-x="1314" 
d="M430 476v-273h711q31 0 47.5 14t26.5 51h28v-332h-28q-9 35 -26 49.5t-48 14.5h-1043v28q35 9 49.5 26t14.5 48v916q0 31 -14 47t-50 27v28h1012q32 0 48.5 14t26.5 50h27v-332h-27q-10 37 -26.5 51t-48.5 14h-680v-246h422q31 0 47.5 14t27.5 50h27v-324h-27
q-10 36 -26.5 50.5t-48.5 14.5h-422zM403 1533h304v-27q-28 -3 -28 -19q0 -6 4 -15l66 -163q9 -22 19 -29t34 -7v-27h-217v27h5q20 0 20 16q0 9 -6 16l-142 174q-20 26 -59 27v27z" />
    <glyph glyph-name="eacute" unicode="&#xe9;" horiz-adv-x="1314" 
d="M430 476v-273h711q31 0 47.5 14t26.5 51h28v-332h-28q-9 35 -26 49.5t-48 14.5h-1043v28q35 9 49.5 26t14.5 48v916q0 31 -14 47t-50 27v28h1012q32 0 48.5 14t26.5 50h27v-332h-27q-10 37 -26.5 51t-48.5 14h-680v-246h422q31 0 47.5 14t27.5 50h27v-324h-27
q-10 36 -26.5 50.5t-48.5 14.5h-422zM945 1533v-27q-39 -1 -59 -27l-142 -174q-6 -7 -6 -16q0 -16 21 -16h4v-27h-217v27q24 0 34 7t19 29l66 163q4 9 4 15q0 16 -28 19v27h304z" />
    <glyph glyph-name="ecircumflex" unicode="&#xea;" horiz-adv-x="1314" 
d="M430 476v-273h711q31 0 47.5 14t26.5 51h28v-332h-28q-9 35 -26 49.5t-48 14.5h-1043v28q35 9 49.5 26t14.5 48v916q0 31 -14 47t-50 27v28h1012q32 0 48.5 14t26.5 50h27v-332h-27q-10 37 -26.5 51t-48.5 14h-680v-246h422q31 0 47.5 14t27.5 50h27v-324h-27
q-10 36 -26.5 50.5t-48.5 14.5h-422zM588 1246h-250v27q24 1 31 5.5t38 36.5l134 149q11 12 11 25q0 17 -33 17v27h316v-27q-30 -3 -30 -18q0 -11 16 -28l150 -167q16 -19 45 -20v-27h-287v27q31 3 31 15q0 4 -16 23l-84 103l-92 -106q-9 -9 -9 -18q0 -15 29 -17v-27z" />
    <glyph glyph-name="edieresis" unicode="&#xeb;" horiz-adv-x="1314" 
d="M430 476v-273h711q31 0 47.5 14t26.5 51h28v-332h-28q-9 35 -26 49.5t-48 14.5h-1043v28q35 9 49.5 26t14.5 48v916q0 31 -14 47t-50 27v28h1012q32 0 48.5 14t26.5 50h27v-332h-27q-10 37 -26.5 51t-48.5 14h-680v-246h422q31 0 47.5 14t27.5 50h27v-324h-27
q-10 36 -26.5 50.5t-48.5 14.5h-422zM476 1510q57 0 95 -38q38 -39 38 -95q0 -52 -38 -90t-93 -38q-53 0 -92 38q-38 37 -38 92q0 54 37 91.5t91 39.5zM875 1510q55 0 93 -38q38 -39 38 -90q0 -57 -38 -95t-95 -38q-53 0 -90.5 38.5t-37.5 92.5q0 53 37.5 91t92.5 39z" />
    <glyph glyph-name="igrave" unicode="&#xec;" horiz-adv-x="593" 
d="M431 1018v-916q0 -31 14 -47.5t50 -27.5v-27h-396v28q35 9 49.5 26t14.5 48v916q0 31 -14 47t-50 27v28h396v-28q-36 -10 -50 -26.5t-14 -47.5zM15 1533h304v-27q-28 -3 -28 -19q0 -6 4 -15l66 -163q9 -22 19 -29t34 -7v-27h-217v27h5q20 0 20 16q0 9 -6 16l-142 174
q-20 26 -59 27v27z" />
    <glyph glyph-name="iacute" unicode="&#xed;" horiz-adv-x="593" 
d="M430 1018v-916q0 -31 14 -47.5t50 -27.5v-27h-396v28q35 9 49.5 26t14.5 48v916q0 31 -14 47t-50 27v28h396v-28q-36 -10 -50 -26.5t-14 -47.5zM577 1533v-27q-39 -1 -59 -27l-142 -174q-6 -7 -6 -16q0 -16 21 -16h4v-27h-217v27q24 0 34 7t19 29l66 163q4 9 4 15
q0 16 -28 19v27h304z" />
    <glyph glyph-name="icircumflex" unicode="&#xee;" horiz-adv-x="592" 
d="M431 1018v-916q0 -31 14.5 -48t49.5 -27v-27h-396v28q35 9 49.5 26t14.5 48v916q0 31 -14 47t-50 27v28h396v-28q-36 -10 -50 -26.5t-14 -47.5zM221 1246h-243v27q24 1 37 9t32 33l113 149q12 15 12 25q0 17 -34 17v27h316v-27q-30 -3 -30 -18q0 -8 16 -28l129 -167
q16 -20 46 -20v-27h-280v27q32 3 31 15q0 6 -7 13q-7 8 -9 10l-70 110l-80 -113q-8 -12 -8 -18q0 -15 29 -17v-27z" />
    <glyph glyph-name="idieresis" unicode="&#xef;" horiz-adv-x="593" 
d="M430 1018v-916q0 -31 14 -47.5t50 -27.5v-27h-396v28q35 9 49.5 26t14.5 48v916q0 31 -14 47t-50 27v28h396v-28q-36 -10 -50 -26.5t-14 -47.5zM129 1510q57 0 95 -38q38 -39 38 -95q0 -52 -38 -90t-93 -38q-53 0 -92 38q-38 37 -38 92q0 54 37 91.5t91 39.5zM460 1510
q55 0 93 -38q38 -39 38 -90q0 -57 -38 -95t-96 -38q-52 0 -89.5 38.5t-37.5 92.5q0 53 37.5 91t92.5 39z" />
    <glyph glyph-name="eth" unicode="&#xf0;" horiz-adv-x="1463" 
d="M184 502h-53q-30 0 -46.5 -14.5t-25.5 -49.5h-32v299h32q9 -35 25.5 -49.5t46.5 -14.5h53v345q0 31 -14 47t-50 27v28h657q205 0 323 -51q166 -72 239 -238q51 -117 51 -271q0 -287 -171 -435q-77 -66 -181.5 -95.5t-260.5 -29.5h-657v28q35 9 49.5 26t14.5 48v400z
M452 673h209q31 0 47 14t26 50h32v-299h-32q-10 36 -26 50t-47 14h-209v-299h286q197 0 286 90q93 94 93 267q0 172 -93 266q-46 48 -114 69.5t-172 21.5h-286v-244z" />
    <glyph glyph-name="ntilde" unicode="&#xf1;" horiz-adv-x="1523" 
d="M406 738v-636q0 -31 14.5 -48t49.5 -27v-27h-372v28q35 9 49.5 26t14.5 48v916q0 31 -14 47t-50 27v28h430v-28q-44 -11 -44 -39q0 -24 32 -56l600 -596v617q0 31 -14 47.5t-50 26.5v28h372v-28q-36 -10 -50 -26.5t-14 -47.5v-916q0 -31 14 -47.5t50 -27.5v-27h-401v27
q44 9 44 37q0 14 -12 29t-55 59zM984 1517l145 -134l-16 -20q-29 9 -37 9q-13 0 -26 -17q-67 -92 -142 -92q-39 0 -85 18l-148 57q-20 7 -44 7q-20 0 -39 -16.5t-19 -33.5q0 -12 15 -30l-18 -15l-149 139l14 17q23 -8 34 -8q21 0 38 22q62 80 152 80q33 0 65 -13l149 -58
q28 -11 51 -11q20 0 38 16t18 34q0 14 -17 33z" />
    <glyph glyph-name="ograve" unicode="&#xf2;" horiz-adv-x="1460" 
d="M728 1144q267 0 445 -136q213 -164 213 -457q0 -275 -213 -439q-176 -136 -443 -136t-443 136q-214 164 -214 448q0 287 214 448q177 133 441 136zM729 932q-173 0 -282 -111q-101 -104 -101 -261q0 -156 101 -260q109 -112 283 -112q173 0 282 112q101 103 101 255
q0 165 -101 266q-110 109 -283 111zM455 1533h304v-27q-28 -3 -28 -19q0 -6 4 -15l66 -163q9 -22 19 -29t34 -7v-27h-217v27h5q20 0 20 16q0 9 -6 16l-142 174q-20 26 -59 27v27z" />
    <glyph glyph-name="oacute" unicode="&#xf3;" horiz-adv-x="1460" 
d="M728 1144q267 0 445 -136q213 -164 213 -457q0 -275 -213 -439q-176 -136 -443 -136t-443 136q-214 164 -214 448q0 287 214 448q177 133 441 136zM729 932q-173 0 -282 -111q-101 -104 -101 -261q0 -156 101 -260q109 -112 283 -112q173 0 282 112q101 103 101 255
q0 165 -101 266q-110 109 -283 111zM1018 1533v-27q-39 -1 -59 -27l-142 -174q-6 -7 -6 -16q0 -16 21 -16h4v-27h-217v27q24 0 34 7t19 29l66 163q4 9 4 15q0 16 -28 19v27h304z" />
    <glyph glyph-name="ocircumflex" unicode="&#xf4;" horiz-adv-x="1460" 
d="M728 1144q267 0 445 -136q213 -164 213 -457q0 -275 -213 -439q-176 -136 -443 -136t-443 136q-214 164 -214 448q0 287 214 448q177 133 441 136zM729 932q-173 0 -282 -111q-101 -104 -101 -261q0 -156 101 -260q109 -112 283 -112q173 0 282 112q101 103 101 255
q0 165 -101 266q-110 109 -283 111zM647 1246h-250v27q24 1 31 5.5t38 36.5l134 149q11 12 11 25q0 17 -33 17v27h316v-27q-30 -3 -30 -18q0 -11 16 -28l150 -167q16 -19 45 -20v-27h-287v27q31 3 31 15q0 4 -16 23l-84 103l-92 -106q-9 -9 -9 -18q0 -15 29 -17v-27z" />
    <glyph glyph-name="otilde" unicode="&#xf5;" horiz-adv-x="1460" 
d="M728 1144q267 0 445 -136q213 -164 213 -457q0 -275 -213 -439q-176 -136 -443 -136t-443 136q-214 164 -214 448q0 287 214 448q177 133 441 136zM729 932q-173 0 -282 -111q-101 -104 -101 -261q0 -156 101 -260q109 -112 283 -112q173 0 282 112q101 103 101 255
q0 165 -101 266q-110 109 -283 111zM952 1517l145 -134l-16 -20q-29 9 -37 9q-13 0 -26 -17q-67 -92 -142 -92q-39 0 -85 18l-148 57q-20 7 -44 7q-20 0 -39 -16.5t-19 -33.5q0 -12 15 -30l-18 -15l-149 139l14 17q23 -8 34 -8q21 0 38 22q62 80 152 80q33 0 65 -13l149 -58
q28 -11 51 -11q20 0 38 16t18 34q0 14 -17 33z" />
    <glyph glyph-name="odieresis" unicode="&#xf6;" horiz-adv-x="1460" 
d="M728 1144q267 0 445 -136q213 -164 213 -457q0 -275 -213 -439q-176 -136 -443 -136t-443 136q-214 164 -214 448q0 287 214 448q177 133 441 136zM729 932q-173 0 -282 -111q-101 -104 -101 -261q0 -156 101 -260q109 -112 283 -112q173 0 282 112q101 103 101 255
q0 165 -101 266q-110 109 -283 111zM536 1510q57 0 95 -38q38 -39 38 -95q0 -52 -38 -90t-93 -38q-53 0 -92 38q-38 37 -38 92q0 54 37 91.5t91 39.5zM935 1510q55 0 93 -38q38 -39 38 -90q0 -57 -38 -95t-95 -38q-53 0 -90.5 38.5t-37.5 92.5q0 53 37.5 91t92.5 39z" />
    <glyph glyph-name="divide" unicode="&#xf7;" horiz-adv-x="1570" 
d="M234 521v324h30q8 -36 23 -50t43 -14h910q28 0 42.5 14t23.5 50h30v-324h-30q-9 36 -23.5 50t-42.5 14h-910q-29 0 -43.5 -14t-23.5 -50h-29zM785 427q69 0 116.5 -48t47.5 -117q0 -67 -48.5 -115t-115.5 -48q-68 0 -116 48.5t-48 116.5q0 67 47.5 114.5t116.5 48.5z
M785 1267q69 0 116.5 -48t47.5 -117q0 -67 -48.5 -115t-115.5 -48q-68 0 -116 48.5t-48 116.5q0 67 47.5 114.5t116.5 48.5z" />
    <glyph glyph-name="oslash" unicode="&#xf8;" horiz-adv-x="1460" 
d="M1002 1242h368v-24q-49 0 -76 -21.5t-92 -111.5l-47 -64q231 -161 231 -462q0 -283 -213 -447q-176 -136 -444 -136q-147 0 -291 51l-16 -21q-24 -33 -24 -52q0 -42 60 -54v-23h-368v23q51 14 81.5 40.5t87.5 102.5l42 58q-84 69 -130 133q-98 136 -98 325q0 284 214 449
q176 136 445 136q149 0 296 -54l17 24q17 23 17 46q0 19 -17 35.5t-43 22.5v24zM574 217q79 -29 153 -29q177 0 285 112q101 103 101 260q0 153 -101 262zM890 902q-71 31 -152 31q-182 0 -291 -111q-101 -105 -101 -261q0 -151 101 -261z" />
    <glyph glyph-name="ugrave" unicode="&#xf9;" horiz-adv-x="1414" 
d="M1273 1018v-593q0 -203 -80 -298q-129 -151 -486 -151q-239 0 -386 73q-106 53 -145 151q-36 90 -36 225v593q0 31 -14 47t-50 27v28h397v-28q-37 -10 -51 -26.5t-14 -47.5v-539q0 -94 16.5 -144t57.5 -82q82 -65 237 -65t237 65q40 32 56 82t16 144v539q0 31 -13.5 47
t-50.5 27v28h373v-28q-36 -10 -50 -26.5t-14 -47.5zM439 1533h304v-27q-28 -3 -28 -19q0 -6 4 -15l66 -163q9 -22 19 -29t34 -7v-27h-217v27h5q20 0 20 16q0 9 -6 16l-142 174q-20 26 -59 27v27z" />
    <glyph glyph-name="uacute" unicode="&#xfa;" horiz-adv-x="1414" 
d="M1273 1018v-593q0 -203 -80 -298q-129 -151 -486 -151q-239 0 -386 73q-106 53 -145 151q-36 90 -36 225v593q0 31 -14 47t-50 27v28h397v-28q-37 -10 -51 -26.5t-14 -47.5v-539q0 -94 16.5 -144t57.5 -82q82 -65 237 -65t237 65q40 32 56 82t16 144v539q0 31 -13.5 47
t-50.5 27v28h373v-28q-36 -10 -50 -26.5t-14 -47.5zM981 1533v-27q-39 -1 -59 -27l-142 -174q-6 -7 -6 -16q0 -16 21 -16h4v-27h-217v27q24 0 34 7t19 29l66 163q4 9 4 15q0 16 -28 19v27h304z" />
    <glyph glyph-name="ucircumflex" unicode="&#xfb;" horiz-adv-x="1414" 
d="M1273 1018v-593q0 -203 -80 -298q-129 -151 -486 -151q-239 0 -386 73q-106 53 -145 151q-36 90 -36 225v593q0 31 -14 47t-50 27v28h397v-28q-37 -10 -51 -26.5t-14 -47.5v-539q0 -94 16.5 -144t57.5 -82q82 -65 237 -65t237 65q40 32 56 82t16 144v539q0 31 -13.5 47
t-50.5 27v28h373v-28q-36 -10 -50 -26.5t-14 -47.5zM624 1246h-250v27q24 1 31 5.5t38 36.5l134 149q11 12 11 25q0 17 -33 17v27h316v-27q-30 -3 -30 -18q0 -11 16 -28l150 -167q16 -19 45 -20v-27h-287v27q31 3 31 15q0 4 -16 23l-84 103l-92 -106q-9 -9 -9 -18
q0 -15 29 -17v-27z" />
    <glyph glyph-name="udieresis" unicode="&#xfc;" horiz-adv-x="1414" 
d="M1273 1018v-593q0 -203 -80 -298q-129 -151 -486 -151q-239 0 -386 73q-106 53 -145 151q-36 90 -36 225v593q0 31 -14 47t-50 27v28h397v-28q-37 -10 -51 -26.5t-14 -47.5v-539q0 -94 16.5 -144t57.5 -82q82 -65 237 -65t237 65q40 32 56 82t16 144v539q0 31 -13.5 47
t-50.5 27v28h373v-28q-36 -10 -50 -26.5t-14 -47.5zM512 1510q57 0 95 -38q38 -39 38 -95q0 -52 -38 -90t-93 -38q-53 0 -92 38q-38 37 -38 92q0 54 37 91.5t91 39.5zM911 1510q55 0 93 -38q38 -39 38 -90q0 -57 -38 -95t-95 -38q-53 0 -90.5 38.5t-37.5 92.5q0 53 37.5 91
t92.5 39z" />
    <glyph glyph-name="yacute" unicode="&#xfd;" horiz-adv-x="1226" 
d="M747 491v-389q0 -31 14 -47.5t50 -27.5v-27h-396v27q36 10 50 26.5t14 48.5v389l-332 457q-56 77 -89.5 105.5t-79.5 38.5v28h504v-28q-65 -17 -65 -61q0 -22 47 -88l163 -226l159 226q47 67 47 89q0 42 -64 60l-1 28h480v-28q-46 -10 -79.5 -38.5t-89.5 -105.5z
M894 1533v-27q-39 -1 -59 -27l-142 -174q-6 -7 -6 -16q0 -16 21 -16h4v-27h-217v27q24 0 34 7t19 29l66 163q4 9 4 15q0 16 -28 19v27h304z" />
    <glyph glyph-name="thorn" unicode="&#xfe;" horiz-adv-x="1239" 
d="M430 942h295q218 0 328 -65q64 -38 100 -108t36 -157q0 -167 -114.5 -248.5t-349.5 -81.5h-295v-180q0 -31 14 -47.5t50 -27.5v-27h-396v28q35 9 49.5 26t14.5 48v916q0 31 -14 47t-50 27v28h396v-28q-36 -10 -50 -26.5t-14 -47.5v-76zM430 485h286q106 0 147 20
q60 30 60 107q0 78 -60 107q-40 20 -147 20h-286v-254z" />
    <glyph glyph-name="ydieresis" unicode="&#xff;" horiz-adv-x="1226" 
d="M747 491v-389q0 -31 14 -47.5t50 -27.5v-27h-396v27q36 10 50 26.5t14 48.5v389l-332 457q-56 77 -89.5 105.5t-79.5 38.5v28h504v-28q-65 -17 -65 -61q0 -22 47 -88l163 -226l159 226q47 67 47 89q0 42 -64 60l-1 28h480v-28q-46 -10 -79.5 -38.5t-89.5 -105.5z
M412 1510q57 0 95 -38q38 -39 38 -95q0 -52 -38 -90t-93 -38q-53 0 -92 38q-38 37 -38 92q0 54 37 91.5t91 39.5zM811 1510q55 0 93 -38q38 -39 38 -90q0 -57 -38 -95t-95 -38q-53 0 -90.5 38.5t-37.5 92.5q0 53 37.5 91t92.5 39z" />
    <glyph glyph-name="dotlessi" unicode="&#x131;" horiz-adv-x="593" 
d="M430 1018v-916q0 -31 14 -47.5t50 -27.5v-27h-396v28q35 9 49.5 26t14.5 48v916q0 31 -14 47t-50 27v28h396v-28q-36 -10 -50 -26.5t-14 -47.5z" />
    <glyph glyph-name="OE" unicode="&#x152;" horiz-adv-x="2435" 
d="M1364 599v-374h878q31 0 46.5 14t25.5 50h32v-353h-32q-10 36 -25.5 50t-46.5 14h-1176q-9 0 -53 -2q-117 -6 -157 -6q-332 0 -544 189q-112 100 -170 241q-51 124 -51 260q0 200 106 367q121 190 354 272q146 52 313 52l202 -8h1152q30 0 46 14t26 51h32v-353h-32
q-10 36 -25.5 49.5t-46.5 13.5h-854v-324h553q31 0 47 14t26 50h32v-345h-32q-10 36 -26 50t-47 14h-553zM1066 1140q-89 11 -166 11q-244 0 -373 -127q-132 -130 -132 -342t132 -341q131 -127 369 -127q73 0 170 11v915z" />
    <glyph glyph-name="oe" unicode="&#x153;" horiz-adv-x="2007" 
d="M1138 476v-273h710q32 0 48 14t27 51h27v-332h-27q-10 36 -26.5 50t-48.5 14h-981q-19 0 -92 -5q-37 -3 -75 -3q-257 0 -424 127q-95 72 -152 179q-67 124 -67 262q0 189 119 341q98 126 261 183q123 44 264 44l166 -8h954q32 0 48.5 14t26.5 50h27v-332h-27
q-11 37 -27 51t-48 14h-683v-246h421q32 0 48.5 14t26.5 50h27v-324h-27q-10 36 -26.5 50.5t-48.5 14.5h-421zM870 917q-70 11 -140 11q-179 0 -282 -93q-118 -107 -118 -275q0 -169 118 -275q103 -93 280 -93q70 0 142 11v714z" />
    <glyph glyph-name="Scaron" unicode="&#x160;" horiz-adv-x="1475" 
d="M1393 1250l-163 -321l-28 16q1 10 1 16q0 34 -58 73q-178 124 -418 124q-106 0 -187 -26q-59 -20 -95.5 -60t-36.5 -87q0 -77 93 -105q48 -14 206 -30l157 -16q140 -15 226.5 -41t153.5 -73q68 -49 107.5 -129t39.5 -171q0 -144 -93 -256q-84 -102 -261 -151
q-132 -37 -283 -37q-271 0 -535 130q-56 26 -67 26q-13 0 -41 -22l-29 15l148 335l29 -14v-13q0 -45 43 -83q65 -58 201 -100t258 -42q133 0 227 45q52 25 83 66.5t31 86.5q0 68 -73 97q-51 20 -206 37l-154 16q-155 16 -219 30.5t-128 46.5q-91 45 -143 135q-47 81 -47 186
q0 173 119 286q156 149 468 149q131 0 244 -26.5t282 -97.5q58 -23 71 -23q21 0 49 23zM868 1765h250v-27q-24 -1 -31.5 -5.5t-37.5 -36.5l-134 -149q-11 -12 -11 -25q0 -17 33 -17v-27h-316v27q30 3 30 18q0 11 -16 29l-150 166q-16 19 -45 20v27h287v-27q-31 -3 -31 -15
q0 -4 16 -23l84 -104l93 107q8 9 8 18q0 15 -29 17v27z" />
    <glyph glyph-name="scaron" unicode="&#x161;" horiz-adv-x="1261" 
d="M1175 1019l-135 -261l-24 13q0 33 -21 52q-57 51 -168 84t-225 33q-97 0 -172 -27q-108 -39 -108 -113q0 -49 52 -69.5t201 -32.5l158 -12q207 -16 315 -80q60 -36 99 -96q49 -75 49 -169q0 -171 -154 -270q-147 -95 -398 -95q-253 0 -489 107q-16 7 -27 7q-20 0 -37 -24
l-25 10l115 274l25 -10v-8q0 -26 20 -44q50 -44 173 -76.5t243 -32.5q106 0 190 28q104 34 104 110q0 61 -72 85q-48 16 -173 27l-157 13q-127 10 -194 26t-117 47q-64 40 -100 109t-36 151q0 184 158 281q144 88 356 88q115 0 214.5 -25.5t237.5 -89.5q41 -19 57 -19t41 22
zM734 1533h250v-27q-24 -1 -31.5 -5.5t-37.5 -36.5l-134 -149q-11 -12 -11 -25q0 -17 33 -17v-27h-316v27q30 3 30 18q0 11 -16 29l-150 166q-16 19 -45 20v27h287v-27q-31 -3 -31 -15q0 -4 16 -23l84 -103l93 106q8 9 8 18q0 15 -29 17v27z" />
    <glyph glyph-name="Ydieresis" unicode="&#x178;" horiz-adv-x="1460" 
d="M879 571v-466q0 -31 14.5 -47t50.5 -26v-32h-429v32q36 10 51 26t15 47v466l-441 621q-57 80 -89.5 107.5t-77.5 33.5v32h539v-32q-67 -11 -67 -62q0 -18 41 -79l246 -366l253 366q41 59 41 80q0 23 -18 39.5t-49 21.5v32h528v-32q-45 -6 -77.5 -33.5t-89.5 -107.5z
M529 1742q57 0 94 -38q38 -39 38 -96q0 -51 -38 -89t-93 -38q-53 0 -92 38q-38 37 -38 92q0 54 37 91.5t92 39.5zM928 1742q55 0 93 -38q38 -39 38 -90q0 -57 -38 -95t-95 -38q-53 0 -90.5 38.5t-37.5 92.5t37.5 91.5t92.5 38.5z" />
    <glyph glyph-name="florin" unicode="&#x192;" horiz-adv-x="1461" 
d="M5 -55l153 257l24 -11q-7 -14 -7 -22q0 -29 41.5 -55t87.5 -26q97 0 147 67q32 43 50 155l59 373h-89q-31 0 -49 -14t-34 -50h-32l55 346h32q4 -36 18 -50.5t44 -14.5h90l28 183q12 75 44.5 150.5t73.5 123.5q112 129 360 129q92 0 142 -15t115 -61q11 -7 19 -7
q21 0 47 28l32 -16l-153 -256l-33 15q15 39 15 49q0 17 -54 35.5t-102 18.5q-50 0 -97.5 -21t-72.5 -54q-38 -49 -53 -147l-25 -155h185q30 0 48.5 14.5t33.5 50.5h33l-55 -346h-32q-4 36 -18 50t-45 14h-185l-63 -400q-20 -123 -40 -174.5t-67 -100.5q-124 -130 -346 -130
q-131 0 -219 61q-26 18 -37 18q-20 0 -46 -23z" />
    <glyph glyph-name="circumflex" unicode="&#x2c6;" 
d="M423 1246h-250v27q24 1 31 5.5t38 36.5l134 149q11 12 11 25q0 17 -33 17v27h316v-27q-30 -3 -30 -18q0 -11 16 -28l150 -167q16 -19 45 -20v-27h-287v27q31 3 31 15q0 4 -16 23l-84 103l-92 -106q-9 -9 -9 -18q0 -15 29 -17v-27z" />
    <glyph glyph-name="caron" unicode="&#x2c7;" 
d="M601 1533h250v-27q-24 -1 -31.5 -5.5t-37.5 -36.5l-134 -149q-11 -12 -11 -25q0 -17 33 -17v-27h-316v27q30 3 30 18q0 11 -16 29l-150 166q-16 19 -45 20v27h287v-27q-31 -3 -31 -15q0 -4 16 -23l84 -103l93 106q8 9 8 18q0 15 -29 17v27z" />
    <glyph glyph-name="macron" unicode="&#x2c9;" 
d="M819 1503v-262h-27q-11 32 -26.5 44t-46.5 12h-414q-30 0 -45.5 -11.5t-27.5 -44.5h-27v262h27q12 -31 27.5 -43.5t45.5 -12.5h414q29 0 45.5 12.5t27.5 43.5h27z" />
    <glyph glyph-name="breve" unicode="&#x2d8;" 
d="M194 1504v25h210v-25q-19 0 -24 -3t-5 -15q0 -42 40.5 -72.5t96.5 -30.5t96.5 30.5t40.5 72.5q0 12 -5 15t-24 3v25h210v-25q-27 -1 -28 -22q-3 -67 -42 -123q-80 -117 -248 -117t-248 117q-39 57 -42 123q-1 21 -28 22z" />
    <glyph glyph-name="dotaccent" unicode="&#x2d9;" 
d="M510 1510q57 0 95 -38q38 -39 38 -95q0 -52 -38 -90t-93 -38q-53 0 -92 38q-38 37 -38 92q0 54 37 91.5t91 39.5z" />
    <glyph glyph-name="ring" unicode="&#x2da;" 
d="M511 1581q97 0 163 -55q67 -56 67 -134q0 -80 -67 -133q-69 -54 -162 -54q-95 0 -162 55q-67 56 -67 134q0 79 65.5 132.5t162.5 54.5zM512 1477q-44 0 -72.5 -23.5t-28.5 -60.5q0 -35 29.5 -59.5t71.5 -24.5q41 0 71 24.5t30 58.5q0 37 -28 61t-73 24z" />
    <glyph glyph-name="ogonek" unicode="&#x2db;" 
d="M927 0h128q-112 -86 -112 -173q0 -47 35 -74.5t95 -27.5q24 0 73 11l16 -42q-84 -26 -165 -26q-107 0 -162 33q-71 42 -71 121q0 72 63 118q27 21 100 60z" />
    <glyph glyph-name="tilde" unicode="&#x2dc;" 
d="M721 1517l145 -134l-16 -20q-29 9 -37 9q-13 0 -26 -17q-67 -92 -142 -92q-39 0 -85 18l-148 57q-20 7 -44 7q-20 0 -39 -16.5t-19 -33.5q0 -12 15 -30l-18 -15l-149 139l14 17q23 -8 34 -8q21 0 38 22q62 80 152 80q33 0 65 -13l149 -58q28 -11 51 -11q20 0 38 16t18 34
q0 14 -17 33z" />
    <glyph glyph-name="hungarumlaut" unicode="&#x2dd;" 
d="M622 1533v-27q-39 -1 -59 -27l-142 -174q-6 -7 -6 -16q0 -16 21 -16h4v-27h-208v27q24 0 34 7t19 29l66 163q5 10 5 15q1 16 -29 19v27h295zM997 1533v-27q-39 -1 -59 -27l-141 -174q-6 -7 -6 -16q0 -16 21 -16h4v-27h-208v27q23 0 33 7t19 29l67 163q4 11 4 15
q0 16 -29 19v27h295z" />
    <glyph glyph-name="pi" unicode="&#x3c0;" horiz-adv-x="1252" 
d="M190 0v778h-149v204h1171v-204h-148v-778h-257v778h-360v-778h-257z" />
    <glyph glyph-name="endash" unicode="&#x2013;" horiz-adv-x="1577" 
d="M1489 730v-340h-32q-9 35 -25.5 49.5t-46.5 14.5h-1193q-31 0 -47 -14t-26 -50h-32v340h32q10 -36 26 -50t47 -14h1193q30 0 46.5 14t25.5 50h32z" />
    <glyph glyph-name="emdash" unicode="&#x2014;" horiz-adv-x="1361" 
d="M1361 730v-340h-32q-10 35 -26 49.5t-46 14.5h-1152q-31 0 -47 -14t-26 -50h-32v340h32q10 -36 26 -50t47 -14h1152q30 0 46 14t26 50h32z" />
    <glyph glyph-name="quoteleft" unicode="&#x2018;" horiz-adv-x="628" 
d="M430 1325q-81 -54 -117.5 -105t-50.5 -132q46 12 70 12q66 0 106 -46t40 -120t-40.5 -118t-107.5 -44q-90 0 -138 74q-42 66 -42 160q0 219 232 383z" />
    <glyph glyph-name="quoteright" unicode="&#x2019;" horiz-adv-x="628" 
d="M197 836q82 53 118 104t51 133q-47 -12 -70 -12q-66 0 -106 46t-40 120t40.5 118t107.5 44q81 0 130.5 -64.5t49.5 -169.5q0 -219 -233 -384z" />
    <glyph glyph-name="quotesinglbase" unicode="&#x201a;" horiz-adv-x="628" 
d="M197 -250q82 54 118 105t51 132q-48 -11 -70 -11q-66 0 -106 46t-40 120t40.5 118t107.5 44q90 0 138 -74q42 -67 42 -160q0 -220 -233 -384z" />
    <glyph glyph-name="quotedblleft" unicode="&#x201c;" horiz-adv-x="1106" 
d="M430 1325q-81 -54 -117.5 -105t-50.5 -132q46 12 70 12q66 0 106 -46t40 -120t-40.5 -118t-107.5 -44q-90 0 -138 74q-42 66 -42 160q0 219 232 383zM908 1325q-81 -54 -117.5 -105t-51.5 -132q47 12 71 12q66 0 106 -45.5t40 -120.5q0 -74 -40.5 -118t-107.5 -44
q-90 0 -138 74q-42 66 -42 160q0 219 232 383z" />
    <glyph glyph-name="quotedblright" unicode="&#x201d;" horiz-adv-x="1106" 
d="M197 836q82 53 118 104t51 133q-47 -12 -70 -12q-66 0 -106 46t-40 120t40.5 118t107.5 44q81 0 130.5 -64.5t49.5 -169.5q0 -219 -233 -384zM675 836q82 53 118 104t51 133q-47 -12 -70 -12q-66 0 -106 46t-40 120t40.5 118t107.5 44q81 0 130.5 -64.5t49.5 -169.5
q0 -219 -233 -384z" />
    <glyph glyph-name="quotedblbase" unicode="&#x201e;" horiz-adv-x="1106" 
d="M197 -250q82 54 118 105t51 132q-48 -11 -70 -11q-66 0 -106 46t-40 120t40.5 118t107.5 44q90 0 138 -74q42 -67 42 -160q0 -220 -233 -384zM675 -250q82 54 118 105t51 132q-48 -11 -70 -11q-66 0 -106 46t-40 120t40.5 118t107.5 44q90 0 138 -74q42 -67 42 -160
q0 -219 -233 -384z" />
    <glyph glyph-name="dagger" unicode="&#x2020;" horiz-adv-x="1104" 
d="M640 1074h264q31 0 47 14t26 50h32v-316h-32q-10 36 -26 50t-47 14h-264l41 -918q1 -33 14 -47.5t50 -25.5v-32h-385v32q37 12 50 26.5t14 46.5l41 918h-264q-31 0 -47 -14t-26 -50h-32v316h32q12 -41 29.5 -52.5t70.5 -11.5h237l-41 323q-4 36 -16 49.5t-48 23.5v32h385
v-32q-36 -10 -48.5 -24t-15.5 -49z" />
    <glyph glyph-name="daggerdbl" unicode="&#x2021;" horiz-adv-x="1104" 
d="M640 1074h264q31 0 47 14t26 50h32v-316h-32q-10 36 -26 50t-47 14h-264l10 -407h254q31 0 47 14t26 50h32v-316h-32q-10 36 -26 50t-47 14h-254l31 -323q3 -35 15.5 -49t48.5 -24v-32h-385v32q36 10 48.5 24t15.5 49l32 323h-228q-53 0 -70.5 -11.5t-29.5 -52.5h-32v316
h32q11 -37 26.5 -50.5t46.5 -13.5h255l9 407h-264q-31 0 -47 -14t-26 -50h-32v316h32q12 -41 29.5 -52.5t70.5 -11.5h237l-41 323q-4 36 -16 49.5t-48 23.5v32h385v-32q-36 -10 -48.5 -24t-15.5 -49z" />
    <glyph glyph-name="bullet" unicode="&#x2022;" horiz-adv-x="1365" 
d="M689 978q113 0 196 -83q84 -83 84 -201t-84 -201q-82 -83 -200 -83t-200 83q-84 83 -84 200q0 121 84 202q84 83 204 83z" />
    <glyph glyph-name="ellipsis" unicode="&#x2026;" horiz-adv-x="1884" 
d="M314 304q69 0 116.5 -48t47.5 -117q0 -67 -48.5 -115t-115.5 -48q-68 0 -116 48.5t-48 116.5q0 67 47.5 114.5t116.5 48.5zM942 304q69 0 116.5 -48t47.5 -117q0 -67 -48.5 -115t-115.5 -48q-68 0 -116 48.5t-48 116.5q0 67 47.5 114.5t116.5 48.5zM1570 304
q69 0 116.5 -48t47.5 -117q0 -67 -48.5 -115t-115.5 -48q-68 0 -116 48.5t-48 116.5q0 67 47.5 114.5t116.5 48.5z" />
    <glyph glyph-name="perthousand" unicode="&#x2030;" horiz-adv-x="2644" 
d="M416 1377q146 0 242 -88q108 -99 108 -270q0 -162 -108 -261q-96 -88 -241 -88t-241 88q-108 100 -108 266q0 168 108 265q96 86 240 88zM417 1234q-78 0 -127 -58.5t-49 -152.5q0 -93 49 -151.5t127 -58.5q77 0 126.5 58.5t49.5 149.5q0 96 -48 154t-128 59zM1391 695
q146 0 242 -88q108 -99 108 -270q0 -162 -108 -261q-96 -88 -241 -88t-241 88q-108 99 -108 266q0 168 108 265q96 86 240 88zM1392 552q-78 0 -127 -58.5t-49 -152.5q0 -93 49 -151.5t127 -58.5q77 0 126.5 58.5t49.5 149.5q0 96 -48 154t-128 59zM1380 1192l-804 -1040
q-36 -47 -36 -68q0 -40 60 -52v-32h-356v32q51 8 80.5 31.5t98.5 112.5l788 1016q44 56 44 81q0 44 -60 60v32h355v-32q-51 -7 -74.5 -26.5t-95.5 -114.5zM2225 695q146 0 242 -88q108 -99 108 -270q0 -162 -108 -261q-96 -88 -241 -88t-241 88q-108 99 -108 266
q0 168 108 265q96 86 240 88zM2226 552q-78 0 -127 -58.5t-49 -152.5q0 -93 49 -151.5t127 -58.5q77 0 126.5 58.5t49.5 149.5q0 96 -48 154t-128 59z" />
    <glyph glyph-name="guilsinglleft" unicode="&#x2039;" horiz-adv-x="640" 
d="M490 983l-196 -403l196 -403h-173l-194 403l194 403h173z" />
    <glyph glyph-name="guilsinglright" unicode="&#x203a;" horiz-adv-x="640" 
d="M150 983h173l194 -403l-194 -403h-173l196 403z" />
    <glyph glyph-name="trademark" unicode="&#x2122;" horiz-adv-x="2083" 
d="M528 1225v-573q0 -15 8 -22t32 -13v-30h-278v30q24 6 32 13t8 22v573h-256q-18 0 -26 -7t-14 -28h-32v211h32q6 -22 14 -29t26 -7h710q17 0 25 7t14 29h32v-211h-32q-6 21 -14 28t-25 7h-256zM1454 591l-305 507v-446q0 -15 8 -22t32 -13v-30h-263v30q24 6 32 13t8 22
v648q0 15 -8 22.5t-32 12.5v30h340v-30q-29 -6 -29 -25q0 -10 8 -23l225 -375l227 368q15 24 15 34q0 19 -31 20v31h333v-30q-24 -5 -32 -12.5t-8 -22.5v-648q0 -15 8 -22t32 -13v-30h-277v30q23 6 31 13t8 22v447z" />
    <glyph glyph-name="Omega" unicode="&#x2126;" horiz-adv-x="1365" 
d="M56 0v239h298q-117 71 -192 165q-112 140 -112 348q0 279 194 471q179 176 436 176q265 0 445 -179q189 -187 189 -467q0 -171 -73.5 -295.5t-230.5 -218.5h298v-239h-548v221q113 60 175 150q101 148 101 334q0 191 -103 325q-98 128 -248 128q-153 0 -254 -128
q-102 -129 -102 -327q0 -167 69.5 -288.5t206.5 -193.5v-221h-549z" />
    <glyph glyph-name="partialdiff" unicode="&#x2202;" 
d="M134 1146l32 214q191 -23 333 -77q183 -70 310 -220q176 -209 176 -536q0 -250 -124 -394q-136 -156 -361 -156q-215 0 -344 152q-117 137 -117 321q0 142 79 256q57 84 150 130.5t202 46.5q102 0 163 -40q8 -5 63 -46q7 -6 22 -16q-9 17 -12 23q-44 90 -69 122t-84 74
q-173 120 -419 146zM520 679q-86 0 -148 -55q-83 -72 -83 -187q0 -104 71 -176q64 -65 156 -65q93 0 156 71t63 175q0 102 -60.5 168.5t-154.5 68.5z" />
    <glyph glyph-name="Delta" unicode="&#x2206;" horiz-adv-x="1320" 
d="M16 0l500 1365h285l503 -1365h-1288zM367 239h580l-287 835z" />
    <glyph glyph-name="product" unicode="&#x220f;" horiz-adv-x="1365" 
d="M41 1536h1283v-221h-147v-1606h147v-221h-530v221h136v1606h-494v-1606h133v-221h-528v221h150v1606h-150v221z" />
    <glyph glyph-name="summation" unicode="&#x2211;" horiz-adv-x="1365" 
d="M1265 1536v-515h-248l-30 262h-610l498 -738l-496 -804h627l17 270h261v-523h-1215v292l480 764l-480 702v290h1196z" />
    <glyph glyph-name="fraction" unicode="&#x2215;" horiz-adv-x="588" 
d="M862 1365v-32q-49 -7 -68 -24.5t-81 -116.5l-618 -1040q-25 -42 -25 -61q0 -24 20.5 -39.5t56.5 -19.5v-32h-420v32q50 9 74.5 32t78.5 112l609 1016q30 49 30 73t-22 43.5t-55 24.5v32h420z" />
    <glyph glyph-name="periodcentered" unicode="&#x2219;" horiz-adv-x="628" 
d="M314 669q69 0 116.5 -48t47.5 -117q0 -67 -48.5 -115t-115.5 -48q-68 0 -116 48.5t-48 116.5q0 67 47.5 114.5t116.5 48.5z" />
    <glyph glyph-name="radical" unicode="&#x221a;" horiz-adv-x="1365" 
d="M1365 1693v-228h-352l-386 -1465h-318l-130 535h-179v228h336l61 -229q15 -56 47 -288h15q29 179 57 307t88 355l208 785h553z" />
    <glyph glyph-name="infinity" unicode="&#x221e;" horiz-adv-x="1365" 
d="M687 570q-49 -60 -89 -98q-106 -98 -244 -98q-144 0 -235 98q-83 88 -83 226q0 141 89 229q91 90 228 90q178 0 325 -194q147 194 333 194q152 0 244 -106q74 -86 74 -215q0 -142 -87 -230q-91 -92 -230 -92q-93 0 -170.5 46.5t-154.5 149.5zM777 696q100 -151 208 -151
q63 0 105 43t42 108q0 64 -42.5 107t-105.5 43q-84 0 -159 -86q-10 -12 -29 -37.5t-19 -26.5zM587 695q-100 151 -210 151q-63 0 -103.5 -42.5t-40.5 -108.5q0 -65 41.5 -107t106.5 -42q86 0 158 85q10 12 29.5 37.5t18.5 26.5z" />
    <glyph glyph-name="integral" unicode="&#x222b;" 
d="M110 -491l48 260q52 -20 85 -20q39 0 69 18t41 48q8 22 9.5 49.5t2.5 169.5v906q0 172 4 240.5t17 118.5q30 119 147 188q84 49 214 49q58 0 168 -21l-48 -260q-50 20 -88 20q-74 0 -101 -54q-18 -34 -18 -142v-1071q0 -198 -19 -274q-25 -104 -123 -173
q-98 -71 -283 -71q-50 0 -101 14q-13 3 -24 5z" />
    <glyph glyph-name="approxequal" unicode="&#x2248;" 
d="M159 713l-142 100q42 100 86 156q89 117 214 117q68 0 220 -67q132 -58 178 -58q43 0 77 25.5t72 87.5l142 -100q-49 -113 -95 -170q-87 -105 -204 -105q-36 0 -75.5 12t-132.5 52q-144 61 -192 61q-42 0 -75 -25t-73 -86zM159 281l-142 100q43 100 86 156
q89 117 215 117q68 0 219 -66q131 -58 178 -58q43 0 77 25t72 86l142 -100q-49 -113 -95 -170q-87 -105 -204 -105q-36 0 -74.5 12t-133.5 52q-145 62 -192 62q-76 0 -148 -111z" />
    <glyph glyph-name="notequal" unicode="&#x2260;" horiz-adv-x="1570" 
d="M831 1013l92 197q7 15 7 33q0 24 -37 55l12 26l295 -136l-13 -27q-19 4 -32 4q-37 0 -54 -38l-54 -114h193q28 0 42.5 14t23.5 50h30v-324h-30q-9 36 -23.5 50t-42.5 14h-284l-125 -268h409q28 0 42.5 13.5t23.5 49.5h30v-324h-30q-9 37 -23.5 51t-42.5 14h-501l-92 -198
q-7 -15 -7 -33q0 -25 37 -55l-13 -26l-294 137l13 27q20 -4 33 -4q36 0 53 37l54 115h-193q-28 0 -42.5 -14t-24.5 -51h-29v324h30q8 -35 23 -49t43 -14h284l125 268h-409q-29 0 -43 -14t-24 -50h-29v324h30q8 -36 23 -50t43 -14h501z" />
    <glyph glyph-name="lessequal" unicode="&#x2264;" 
d="M955 1307v-271l-571 -190l571 -189v-271l-887 339v244zM955 330v-254h-887v254h887z" />
    <glyph glyph-name="greaterequal" unicode="&#x2265;" 
d="M68 1307l887 -338v-244l-887 -339v271l571 189l-571 190v271zM68 330h887v-254h-887v254z" />
    <glyph glyph-name="lozenge" unicode="&#x25ca;" horiz-adv-x="1365" 
d="M683 1419l532 -736l-532 -736l-532 736zM683 1237l-404 -554l404 -555l403 555z" />
    <glyph glyph-name="fi" unicode="&#xf001;" horiz-adv-x="1841" 
d="M430 476v-374q0 -31 14 -47.5t50 -27.5v-27h-396v28q35 9 49.5 26t14.5 48v916q0 31 -14 47t-50 27v28h1004q32 0 48.5 14t26.5 50h27v-332h-27q-10 36 -26.5 50.5t-48.5 14.5h-672v-246h422q32 0 48 14t27 50h27v-324h-27q-10 36 -26.5 50.5t-48.5 14.5h-422zM1678 1018
v-916q0 -31 14 -48t50 -27v-27h-396v28q35 9 49.5 26t14.5 48v916q0 31 -13.5 47t-50.5 27v28h396v-28q-36 -10 -50 -26.5t-14 -47.5z" />
    <glyph glyph-name="fl" unicode="&#xf002;" horiz-adv-x="2424" 
d="M430 476v-374q0 -31 14 -47.5t50 -27.5v-27h-396v28q35 9 49.5 26t14.5 48v916q0 31 -14 47t-50 27v28h1004q32 0 48.5 14t26.5 50h27v-332h-27q-11 37 -27 51t-48 14h-672v-246h422q31 0 47.5 14t27.5 50h27v-324h-27q-10 36 -26.5 50.5t-48.5 14.5h-422zM1678 203h627
q32 0 48 14t27 51h27v-332h-27q-10 36 -26.5 50t-48.5 14h-959v28q35 9 49.5 26t14.5 48v916q0 31 -13.5 47t-50.5 27v28h396v-28q-36 -10 -50 -26.5t-14 -47.5v-815z" />
    <glyph glyph-name="glyph242" 
d="M311 1742q57 0 95 -38q38 -39 38 -96q0 -51 -38 -89t-93 -38q-53 0 -92 38q-38 37 -38 92q0 54 37 91.5t91 39.5zM710 1742q55 0 93 -38q38 -39 38 -90q0 -57 -38 -95t-95 -38q-53 0 -90.5 38.5t-37.5 92.5q0 53 37.5 91t92.5 39z" />
    <glyph glyph-name="glyph243" 
d="M511 1813q97 0 163 -55q67 -56 67 -134q0 -80 -67 -133q-69 -54 -162 -54q-95 0 -162 55q-67 56 -67 134q0 79 65.5 132.5t162.5 54.5zM512 1709q-44 0 -72.5 -23.5t-28.5 -60.5q0 -35 29.5 -59.5t71.5 -24.5q41 0 71 24.5t30 58.5q0 37 -28 61t-73 24z" />
    <glyph glyph-name="glyph244" 
d="M601 1765h250v-27q-24 -1 -31.5 -5.5t-37.5 -36.5l-134 -149q-11 -12 -11 -25q0 -17 33 -17v-27h-316v27q30 3 30 18q0 11 -16 29l-150 166q-16 19 -45 20v27h287v-27q-31 -3 -31 -15q0 -4 16 -23l84 -104l93 107q8 9 8 18q0 15 -29 17v27z" />
    <glyph glyph-name="glyph245" 
d="M367 -246l57 110q13 25 18.5 29t22.5 4q137 0 212 -46t75 -130q0 -80 -64 -132q-68 -55 -196 -55q-132 0 -220 31l25 52q60 -16 112 -16q69 0 110 25t41 68q0 32 -23 55t-55 23q-48 0 -83 -39z" />
    <glyph glyph-name="glyph246" 
d="M423 1478h-250v27q24 1 31 5.5t38 36.5l134 149q11 12 11 25q0 17 -33 17v27h316v-27q-30 -3 -30 -18q0 -11 16 -28l150 -167q16 -19 45 -20v-27h-287v27q31 2 31 15q0 4 -16 23l-84 103l-92 -106q-9 -9 -9 -18q0 -15 29 -17v-27z" />
    <glyph glyph-name="glyph247" 
d="M778 1765v-27q-39 -1 -59 -28l-142 -173q-6 -7 -6 -16q0 -16 21 -16h4v-27h-217v27q24 0 34 7t19 29l66 163q4 9 4 15q0 16 -28 19v27h304z" />
    <glyph glyph-name="glyph248" 
d="M345 1510q57 0 95 -38q38 -39 38 -95q0 -52 -38 -90t-93 -38q-53 0 -92 38q-38 37 -38 92q0 54 37 91.5t91 39.5zM676 1510q55 0 93 -38q38 -39 38 -90q0 -57 -38 -95t-96 -38q-52 0 -89.5 38.5t-37.5 92.5q0 53 37.5 91t92.5 39z" />
    <glyph glyph-name="glyph249" 
d="M721 1749l145 -134l-16 -20q-29 9 -37 9q-13 0 -26 -17q-67 -91 -142 -91q-40 0 -85 17l-148 57q-22 8 -44 8q-20 0 -39 -16.5t-19 -33.5q0 -12 15 -31l-18 -14l-149 138l14 17q24 -8 34 -8q21 0 38 23q61 80 152 80q31 0 65 -13l149 -59q26 -10 51 -10q20 0 38 16t18 34
q0 13 -17 33z" />
    <glyph glyph-name="glyph250" 
d="M345 1742q57 0 95 -38q38 -39 38 -96q0 -51 -38 -89t-93 -38q-53 0 -92 38q-38 37 -38 92q0 54 37 91.5t91 39.5zM676 1742q55 0 93 -38q38 -39 38 -90q0 -57 -38 -95t-96 -38q-52 0 -89.5 38.5t-37.5 92.5q0 53 37.5 91t92.5 39z" />
    <glyph glyph-name="glyph251" 
d="M246 1765h304v-27q-28 -3 -28 -19q0 -6 4 -15l66 -163q9 -22 19 -29t34 -7v-27h-217v27h5q20 0 20 16q0 9 -6 16l-142 173q-20 27 -59 28v27z" />
    </font>
</defs>
</svg>
